<svg version="1.1" xmlns="http://www.w3.org/2000/svg" xmlns:xlink="http://www.w3.org/1999/xlink" x="0px" y="0px" viewBox="0 0 1122 1122" style="enable-background:new 0 0 1122 1122;" xml:space="preserve" transform="rotate(-270)">
<g id="BG">
	<rect style="fill:#FFFFFF;" width="1122" height="1122"></rect>
</g>
<g id="Object">
	<g>
		<path d="M686.782,116.43c-0.35,0.304-1.572,1.816-2.2,0.78c-5.509,9.59-9.729,19.957-15.934,29.135
			c-1.587,2.347-3.21,4.689-4.563,7.181c-1.236,2.277-2.322,4.636-3.673,6.85c-1.703,2.79-3.703,5.424-5.609,8.073
			c-5.227,7.267-10.784,14.295-16.551,21.138c-3.834,4.548-7.978,8.888-12.108,13.168c-3.782,3.921-7.2,8.277-11.136,12.032
			c-3.91,3.729-8.031,7.442-12.604,10.337c-2.336,1.479-4.722,2.87-6.924,4.549c-1.902,1.45-3.674,3.064-5.58,4.509
			c-3.917,2.969-8.722,4.37-13.081,6.545c-4.523,2.256-9.151,4.295-13.678,6.544c-1.737,0.864-3.67,1.679-5.213,2.878
			c-0.647,0.503-1.205,0.953-0.359,1.43c1.105,0.622,3.583-0.104,4.704-0.315c2.501-0.474,4.945-1.195,7.375-1.944
			c5.043-1.557,9.834-3.711,14.729-5.661c4.746-1.892,8.568-4.463,12.437-7.789c3.832-3.294,8.305-5.623,12.201-8.817
			c4.128-3.383,8.295-7.078,11.774-11.131c3.811-4.44,7.663-8.81,11.541-13.194c3.749-4.238,7.477-8.492,10.967-12.948
			c1.746-2.23,3.45-4.495,5.167-6.749c4.049-5.567,8.002-11.192,11.876-16.882c3.613-5.307,6.261-11.132,9.907-16.414
			c7.437-10.775,13.38-22.546,19.992-33.841c-0.503-0.122-1.14-0.401-1.664-0.404C687.694,115.484,687.488,115.818,686.782,116.43z"></path>
		<path d="M554.381,609.134c-0.157,0.01-0.308-0.067-0.463-0.103c0.045,0.027,0.103,0.06,0.147,0.086
			C554.17,609.122,554.276,609.128,554.381,609.134z"></path>
		<path d="M550.524,607.619c0.405-0.014,0.808,0.182,1.213,0.332C551.35,607.755,550.952,607.604,550.524,607.619z"></path>
		<path d="M709.733,270.832c-0.721-0.632-2.199,0.727-2.702,1.127c-2.118,1.684-4.03,3.715-5.942,5.626
			c-4.219,4.214-8.054,8.811-12.748,12.519c-4.836,3.821-9.572,7.767-14.449,11.534c-5.11,3.947-10.057,8.083-15.556,11.487
			c-3.02,1.87-6.079,3.662-8.907,5.821c-1.333,1.017-2.626,2.086-3.957,3.105c-0.317,0.242-0.855,0.475-1.068,0.8
			c-0.294,0.448-0.147,0.335-0.138,0.894c0.016,0.93,0.229,1.883,0.284,2.818c3.752-2.494,7.066-5.555,10.909-7.925
			c4.169-2.572,8.412-4.938,12.367-7.845c7.893-5.805,15.751-11.661,23.524-17.628c-0.063-0.048-0.127-0.096-0.191-0.144
			c0.255-0.172,0.648-0.314,0.757-0.289c2.214-1.725,4.297-3.688,6.184-5.767c-4.727,6.544-9.317,12.927-14.911,18.799
			c-1.581,1.661-3.305,3.186-4.885,4.85c-1.459,1.536-2.685,3.225-4.185,4.737c-1.359,1.369-3.101,2.38-4.321,3.871
			c-1.229,1.499-2.188,2.625-3.704,3.857c-1.454,1.183-2.795,2.685-3.909,4.186c-0.443,0.597-2.26,2.771-0.632,2.68
			c1.489-0.083,3.563-2.342,4.652-3.252c1.311-1.094,2.866-2.017,4.032-3.26c1.284-1.368,2.061-2.925,3.543-4.142
			c1.587-1.304,3.066-2.875,4.329-4.497c2.707-3.475,5.755-6.62,8.573-10.014c3.16-3.807,5.856-7.984,9.113-11.66
			c1.629-1.839,3.006-3.929,4.546-5.848c1.485-1.849,3.067-3.436,4.299-5.486c-2.529,7.092-4.556,14.264-7.825,21.061
			c-3.167,6.586-6.016,13.322-9.312,19.85c-1.452,2.875-2.818,5.795-4.365,8.621c-1.661,3.032-3.796,5.795-5.697,8.677
			c-0.95,1.44-1.828,2.923-2.714,4.403c-0.385,0.645-0.555,1.053-0.747,1.708c-0.309,1.053-0.584,0.975-1.231,1.695
			c-0.979,1.09-1.607,2.786-2.424,4.014c-0.508,0.764-1.047,1.509-1.588,2.25c-7.175,9.833-15.668,18.667-24.339,27.165
			c-5.752,5.636-12.273,10.545-18.605,15.501c-3.037,2.377-5.849,5.028-8.905,7.385c-3.183,2.455-6.582,4.585-9.973,6.734
			c-3.544,2.247-7.21,3.932-10.956,5.793c-3.5,1.739-6.61,4.09-9.929,6.135c-3.491,2.151-7.295,3.49-11.118,4.916
			c-0.418,0.155-0.836,0.311-1.252,0.473c-0.879,0.342-0.994,0.341-1.404,0.969c-0.555,0.846-0.26,0.797-1.314,1.237
			c-0.653,0.273-3.838,2.552-3.307,0.14c-5.425,1.869-11.001,2.991-16.538,4.442c-0.087-0.538-0.17-1.078-0.258-1.616
			c-1.173,0.832-2.505-0.047-2.663-1.405c-0.147-1.262,0.919-1.32,1.991-1.563c-0.193-0.635-0.495-1.26-0.65-1.904
			c-0.224-0.93-0.309-0.66,0.364-1.351c0.913-0.94,1.873-1.798,2.678-2.852c0.691-0.904,1.521-1.518,2.263-2.357
			c0.498-0.564,0.742-1.292,1.227-1.868c1.568-1.865,3.623-3.523,5.517-5.039c2.18-1.746,3.798-3.879,6.042-5.538
			c0.883-0.653,1.113-1.59,1.872-2.309c0.781-0.74,1.634-1.12,2.331-1.981c0.385-0.476,1.756-2.18,1.162-2.896
			c-0.601-0.726-2.156,0.573-2.673,0.929c-0.818,0.565-1.601,1.142-2.423,1.694c-1.123,0.753-1.343,1.984-2.375,2.806
			c-2.234,1.778-3.673,4.122-5.759,6.07c-4.008,3.742-6.807,8.695-11.352,11.841c-0.471-1.171-0.491-1.487,0.002-2.653
			c0.416-0.982,0.815-1.971,1.234-2.95c0.887-2.063,1.828-4.101,2.811-6.118c1.86-3.82,3.756-7.569,6.189-11.062
			c2.5-3.59,4.732-7.16,6.816-11.01c2.277-4.207,5.119-7.442,8.489-10.798c3.067-3.053,5.925-6.302,9.028-9.323
			c3.431-3.34,6.647-7.049,10.284-10.159c7.51-6.42,15.939-11.79,24.126-17.287c4.693-3.151,9.429-6.243,14.169-9.323
			c2.418-1.57,4.846-3.126,7.271-4.686c0.945-0.608,2.789-1.327,3.456-2.22c0.705-0.945,0.629-3.009,0.82-4.252
			c-6.358,4.294-13.098,8.067-19.63,12.087c-8.445,5.197-16.942,10.387-25.081,16.052c-3.801,2.646-7.628,5.324-10.983,8.529
			c-3.516,3.359-7.079,6.676-10.57,10.062c-3.13,3.034-6.226,6.113-9.332,9.172c-3.255,3.206-5.687,6.844-7.84,10.853
			c-2.174,4.05-5.062,7.584-7.409,11.519c-2.554,4.281-4.457,9.147-5.917,13.903c-0.135-3.281-0.103-6.561-0.619-9.814
			c-0.462-2.909-1.212-5.759-1.778-8.648c-0.622-3.175-0.914-6.424-1.252-9.64c-0.324-3.09-0.739-6.224-0.563-9.334
			c0.167-2.965,0.715-5.901,0.736-8.875c0.02-2.846-0.508-5.657-0.575-8.497c-0.063-2.704,0.418-5.399,0.565-8.095
			c0.067-1.228,0.116-2.496-0.151-3.707c-0.113-0.508-0.352-0.929-0.509-1.41c-0.281-0.861-0.261-0.65,0.143-1.511
			c0.714-1.522,1.372-2.237,2.466-3.475c0.774-0.878,1.56-1.907,2.167-2.909c1.678-2.77,3.732-5.199,5.649-7.818
			c-0.731,0.205-1.566,0.25-2.274,0.503c-0.775,0.275-0.943,0.476-1.554,1.142c-1.066,1.16-2.243,2.32-3.109,3.641
			c-0.678,1.035-1.315,1.973-2.11,2.928c-0.869,1.046-2.094,1.837-2.835,2.965c-0.03-0.902-0.211-1.491,0.268-2.298
			c0.372-0.627,0.959-1.111,1.408-1.679c0.695-0.878,1.338-1.868,1.91-2.83c0.685-1.149,1.173-2.256,2.006-3.321
			c0.5-0.639,1.183-1.277,1.59-1.975c0.365-0.626,0.393-1.333,0.732-2.012c1.251-2.501,3.815-4.916,5.982-6.639
			c2.305-1.832,4.326-4.022,6.633-5.869c-1.008,1.246-1.899,2.648-2.692,4.039c0.62,0.029,1.144,0.227,1.598,0.647
			c1.167-1.798,2.677-3.259,4.025-4.901c0.762-0.928,1.359-2.087,1.948-3.131c0.426-0.755,1.818-1.764,1.944-2.599
			c0.373-2.468-4.41,1.651-4.845,2.006c-1.715,1.397-3.446,2.606-4.972,4.24c-0.968,1.036-1.946,1.938-2.972,2.912
			c-0.79,0.751-1.244,1.69-1.927,2.521c-1.214,1.475-2.662,2.791-3.962,4.193c-1.836,1.978-3.838,3.886-5.505,6.009
			c-1.362,1.733-2.233,3.816-3.777,5.438c-0.08-2.206,0.814-4.261,1.151-6.412c0.393-2.499,0.16-5.163,0.187-7.69
			c0.027-2.481-0.479-4.868-0.545-7.336c-0.069-2.579,1.066-4.852,1.439-7.36c0.33-2.219-0.552-4.073-0.903-6.215
			c-0.226-1.381,0.031-2.662,0.291-4.01c0.992-5.152,2.282-10.276,3.811-15.294c1.427-4.684,3.35-9.084,5.248-13.594
			c0.921-2.189,1.978-4.306,2.064-6.711c0.042-1.164-0.068-2.331,0.139-3.485c0.255-1.428,0.917-2.812,1.42-4.169
			c0.723-1.951,1.283-3.998,2.547-5.678c0.639-0.848,1.367-1.628,1.994-2.487c0.691-0.947,1.067-2.113,1.724-2.971
			c0.583-0.759,1.043-1.542,1.595-2.336c0.537-0.77,1.37-1.198,2.035-1.845c1.663-1.615,2.705-3.675,4.248-5.382
			c1.827-2.021,3.57-4.055,5.265-6.194c1.281-1.615,2.219-3.523,3.68-4.954c1.568-1.534,2.727-3.424,4.284-4.981
			c0.715-0.716,1.447-1.267,2.022-2.116c0.072-0.105,0.725-0.994,0.707-1.163c-0.049-0.463-0.923-1.325-1.057-1.951
			c-1.093,1.08-1.881,2.443-2.936,3.576c-0.908,0.975-1.72,2.094-2.462,3.202c-0.832,1.243-1.901,2.239-2.748,3.447
			c-0.543,0.775-0.862,1.642-1.466,2.381c-2.028,2.482-4.33,4.742-6.633,6.96c-1.265,1.218-2.203,2.567-3.368,3.851
			c-1.094,1.208-2.597,2.037-3.626,3.251c-0.105-1.142,0.873-3.314,1.44-4.321c0.889-1.581,2.258-2.654,2.865-4.438
			c0.534-1.569,0.692-3.251,1.197-4.818c0.448-1.392,1.117-2.711,1.548-4.12c1.069-3.491,1.583-7.181,2.921-10.586
			c1.233-3.142,2.987-6.077,4.461-9.108c3.114-6.405,6.019-12.967,8.858-19.498c2.867-6.597,7.335-12.686,11.659-18.392
			c6.244-8.24,13.22-16.16,21.237-22.735c4.405-3.613,9.298-6.57,13.872-9.956c5.923-4.384,13.012-6.692,19.559-9.96
			c7.529-3.759,15.351-7.082,22.942-10.579c3.32-1.529,6.883-2.907,10.142-4.883c3.348-2.03,6.612-4.294,9.778-6.596
			c-1.247,2.598-2.293,5.287-3.45,7.925c-0.594,1.356-1.246,2.675-1.952,3.976c-0.307,0.565-0.595,0.936-0.464,1.433
			c0.067,0.251,0.668,0.86,0.828,1.023c0.508,0.519,0.695,0.584,1.465,0.772c0.956,0.233,0.848,0.423,1.452-0.316
			c0.806-0.984,1.351-2.391,1.906-3.533c1.164-2.395,2.129-4.897,3.116-7.368c1.595-3.992,4.247-8.452,4.492-12.822
			c0.05-0.904-0.066-1.887-1.17-1.414c-0.657,0.281-1.198,1.233-1.578,1.782c-0.905,1.311-1.213,2.061-2.593,2.842
			c1.573,1.245-1.927,2.481-1.674,0.994c-0.743,0.462-2.447,1.049-2.658,1.794c-0.265,0.93,0.496,1.722-0.772,2.224
			c-0.92,0.364-0.775-0.119-1.558-0.464c-0.662-0.29-0.481-0.314-1.202,0.115c-1.355,0.809-2.684,1.657-4.005,2.521
			c-4.915,3.214-10.169,5.43-15.462,7.914c-2.84,1.333-5.639,2.759-8.462,4.128c-0.607,0.293-1.36,0.54-1.91,0.922
			c-0.339,0.235-0.574,0.656-0.904,0.835c-0.299,0.162-0.54-0.095-0.776-0.025c-0.768,0.225-1.552,0.757-2.265,1.123
			c-5.518,2.829-10.999,5.619-16.613,8.257c-4.893,2.3-8.944,5.706-13.428,8.656c-1.729,1.137-3.468,2.243-5.144,3.459
			c-2.056,1.49-4.061,3.013-6.028,4.62c-1.186,0.969-2.358,1.926-3.476,2.974c-1.106,1.035-2.207,2.075-3.311,3.111
			c-0.604,0.566-0.766,0.758-0.969,1.451c-0.189,0.642-0.162,1.196-0.691,1.698c-0.531,0.505-1.001,0.333-1.602,0.525
			c-0.373,0.118-0.009-0.137-0.521,0.135c-0.329,0.174-0.667,0.705-0.924,0.976c-1.197,1.259-2.375,2.516-3.492,3.847
			c-2.201,2.619-4.444,5.187-6.575,7.866c-3.456,4.345-6.713,8.984-9.488,13.802c0.49-0.086,1.242-0.459,1.727-0.241
			c0.878,0.395,0.588,1.523,0.077,2.072c-0.501,0.537-1.476,0.992-2.203,1.069c-0.818,0.086-0.75-0.236-1.249,0.248
			c-0.324,0.313-0.496,1.101-0.676,1.499c-2.134,4.736-4.697,9.261-6.856,13.984c-2.047,4.478-4.757,8.66-6.625,13.213
			c-0.509,1.241-0.91,2.52-1.285,3.805c-0.159,0.547-0.313,1.094-0.465,1.643c-0.047,0.172-0.093,0.344-0.14,0.516
			c0.05,0.478-0.102,0.619-0.455,0.425c-0.623,0.3-1.676,0.116-2.423,0.474c-1.207,0.578-2.24,1.549-3.123,2.535
			c0.446-4.025,0.712-8.012,0.925-12.055c0.186-3.512,0.752-6.939,0.428-10.467c-0.345-3.764-1.686-7.338-2.022-11.094
			c-0.338-3.78-0.365-7.548-0.994-11.302c-0.645-3.856-1.371-7.889-2.51-11.63c-1.215-3.991-2.7-7.882-3.865-11.892
			c-2.208-7.602-4.674-15.118-7.795-22.397c-2.789-6.506-6.01-12.907-9.575-19.025c-0.539,2.463-3.405-1.392-2.82-3.165
			c0.063-0.189,0.485-0.739,0.482-0.843c-0.009-0.358-0.716-1.25-0.917-1.597c-0.888-1.538-1.93-2.951-3.027-4.346
			c-4.304-5.479-7.598-11.625-11.945-17.051c-4.319-5.393-8.826-10.722-12.598-16.526c-1.777-2.733-3.31-5.615-5.097-8.343
			c-1.774-2.708-3.693-5.314-5.24-8.165c-1.372-2.529-2.47-5.528-4.308-7.767c-1.553-1.894-2.523-0.802-2.805,1.093
			c-0.957,6.433,0.617,12.903,1.471,19.234c0.442,3.28,0.56,6.595,1.002,9.878c0.478,3.549,1.144,7.085,1.861,10.592
			c1.363,6.668,3.129,13.21,4.333,19.913c0.689,3.841,2.054,7.335,3.317,11.01c0.994,2.891,1.661,5.92,2.452,8.871
			c2.131,7.946,4.295,15.898,6.827,23.728c0.557-1.476,1.33-2.854,2.007-4.276c0.651-1.368-0.126-2.596-0.584-4.01
			c-0.708-2.183-1.434-4.361-2.16-6.538c-0.686-2.056-1.306-4.129-1.916-6.209c-0.455-1.549-0.887-3.082-1.564-4.488
			c-0.755-1.565-0.805-3.129-1.098-4.737c-0.602-3.301-2.262-6.385-3.202-9.595c-0.966-3.296-1.235-6.764-1.832-10.137
			c-1.242-7.012-2.929-13.883-3.885-20.953c-0.499-3.692-0.762-7.379-1.026-11.092c-0.262-3.692-1.113-7.268-1.684-10.913
			c1.499,2.818,3.419,5.375,5.153,8.047c1.697,2.612,3.231,5.323,5.045,7.859c3.827,5.353,8.222,10.313,12.505,15.299
			c4.296,4.999,7.419,10.83,11.538,15.975c2.771,3.463,4.785,7.076,6.92,10.945c5.549,10.05,9.829,20.781,13.123,31.756
			c1.819,6.06,3.249,12.224,5.205,18.242c1.792,5.515,2.992,11.636,3.363,17.43c0.223,3.484,0.066,7.011,0.65,10.464
			c0.554,3.272,1.491,6.44,1.527,9.787c0.035,3.386-0.477,6.738-0.384,10.127c0.054,1.97,0.072,3.934,0.08,5.904
			c0.002,0.301-0.061,0.708,0.006,1c0.002,0.217,0.005,0.433,0.007,0.65c0.245,0.032,0.48,0.096,0.707,0.19
			c0.289,0.478,0.362,2.263-0.657,2.04c0.031,0.88,0.091,1.758,0.127,2.638c-0.191-1.061-0.676-2.02-1.163-2.974
			c-0.053-0.105-0.041-0.25-0.098-0.352c-0.195-0.217-0.365-0.45-0.513-0.701c-0.269-0.239-0.199-0.422,0.211-0.549
			c-0.348-2.787-1.266-5.565-1.733-8.348c-0.394-2.352-1.221-4.47-1.752-6.766c-0.267-1.155-0.324-2.267-0.482-3.429
			c-0.166-1.227-1.031-2.094-1.244-3.275c-0.737,0.501-1.847,1.235-2.77,0.77c0.255,1.513,1.282,2.599,1.47,4.191
			c0.19,1.617,0.693,3.299,1.364,4.784c1.493,3.299,2.015,7.182,3.052,10.666c0.48,1.615,0.901,3.183,1.591,4.717
			c0.654,1.457,0.648,3.085,1.103,4.615c0.151,0.506,0.509,1.206,0.416,1.725c-0.126,0.7-0.89,1.604-1.222,2.227
			c-0.778,1.458-1.828,2.607-2.887,3.866c-2.333-5.878-5.504-11.469-8.259-17.157c-1.273-2.63-2.125-5.433-3.376-8.07
			c-1.301-2.745-3.141-5.107-4.79-7.638c-3.268-5.014-4.887-11.045-7.368-16.469c-1.372-3-2.646-6.067-4.127-9.015
			c-1.538-3.064-3.227-5.992-4.445-9.208c-1.368-3.613-2.738-7.239-4.016-10.885c-0.581-1.661-0.837-4.117-1.792-5.576
			c-0.461-0.704,0.162-0.452-0.797-0.667c-0.283-0.063-0.854-0.045-1.139,0.012c-0.902,0.179-1.311,1.138-2.233,1.121
			c1.927,6.017,3.646,12.082,5.759,18.045c1.052,2.97,2.477,5.73,3.846,8.559c1.368,2.828,2.494,5.78,3.727,8.67
			c2.388,5.595,3.975,11.735,6.969,17.034c1.401,2.479,3.201,4.708,4.536,7.225c1.311,2.47,2.101,5.17,3.304,7.689
			c2.644,5.541,6.13,10.926,9.952,15.718c0.618,0.775,2.178,1.984,2.478,2.899c0.142,0.432-0.157,0.944-0.235,1.475
			c-0.113,0.767-0.022,1.54,0.09,2.301c0.191,1.308,0.682,2.74,0.432,4.072c-0.257,1.371-1.231,2.579-2.006,3.697
			c-1.773,2.555-2.359,5.326-3.133,8.306c-0.409,1.575-0.81,3.05-0.72,4.689c0.087,1.581,0.45,3.162,0.107,4.731
			c-0.705,3.219-1.716,6.533-2.767,9.655c-1.071,3.181-1.686,6.335-2.263,9.64c-0.708,4.048-1.111,8.148-1.624,12.223
			c-0.208,1.658-0.563,3.378-0.608,5.048c-0.048,1.797,0.682,3.469,0.959,5.219c0.58,3.657-2.032,7.082-2.143,10.759
			c-0.11,3.614-0.333,7.036-0.802,10.631c-0.412-6.658-0.451-13.122-2.638-19.487c-2.221-6.465-2.802-13.237-4.806-19.774
			c-2.211-7.214-5.364-13.94-8.186-20.92c-2.883-7.134-6.005-14.165-9.793-20.868c-2.189-3.873-4.503-7.693-7.008-11.37
			c-3.265-4.793-6.493-9.762-10.444-14.022c-2.422-2.611-5.024-4.984-7.282-7.755c-2.4-2.943-4.749-5.912-7.551-8.493
			c-5.446-5.02-11.107-9.759-16.708-14.597c-2.737-2.365-5.453-4.756-8.572-6.617c-2.903-1.734-5.92-3.293-8.904-4.883
			c-2.255-1.202-5.374-3.151-8.038-3.151c-2.503,0-0.289,2.195,0.633,2.938c0.651,0.525,1.327,0.785,1.501,1.533
			c0.127,0.552-0.026,1.334-0.016,1.908c0.025,1.668,0.15,3.329,0.283,4.991c0.292,3.636,0.61,7.261,1.065,10.88
			c0.415,3.294,0.487,6.61,0.884,9.903c0.414,3.432,1.587,6.607,2.683,9.864c1.095,3.256,1.495,6.586,1.982,9.973
			c0.484,3.374,1.447,6.676,2.36,9.956c2.002,7.19,4.849,14.088,7.318,21.131c3.745,10.685,8.217,20.89,13.864,30.698
			c3.212,5.58,6.701,11.338,10.959,16.183c2.395,2.726,4.867,5.294,7.094,8.17c2.29,2.958,4.585,5.878,7.307,8.46
			c5.057,4.795,10.343,9.375,15.865,13.624c2.605,2.005,5.088,4.092,7.894,5.822c2.986,1.841,6.292,3.228,9.534,4.554
			c1.457,0.596,3.593,1.03,4.872,1.926c0.387,0.271,2.085,2.733,1.98,0.572c0.386,0.101,1.328,0.163,1.616,0.379
			c0.261,0.196,0.435,0.877,0.632,1.156c0.505,0.713,1.163,1.28,2,1.567c-1.269,2.843-2.137,5.89-2.255,9.012
			c-0.107,2.845,0.27,5.669,0.353,8.508c0.083,2.883-0.216,5.754-0.263,8.634c-0.054,3.284,0.431,6.441,0.979,9.671
			c0.563,3.321,1.106,6.681,1.876,9.962c0.724,3.077,1.758,6.07,2.491,9.144c1.505,6.306,0.683,12.935,3.018,19.06
			c-5.779-7.111-11.739-14.04-16.629-21.829c-1.209-1.926-2.318-3.955-3.657-5.794c-1.41-1.937-2.948-3.712-4.201-5.774
			c-0.612-1.007-1.019-2.124-1.641-3.124c-0.585-0.94-1.388-1.653-2.099-2.487c-1.313-1.539-2-3.539-3.194-5.185
			c-0.827-1.139-2.407-3.898-3.897-4.271c-1.72-0.431,0.365,3.079,0.699,3.723c0.894,1.725,1.882,3.388,2.728,5.136
			c0.954,1.974,2.718,3.181,3.811,5.03c2.497,4.227,5.642,7.811,8.42,11.84c2.923,4.236,5.914,8.6,9.29,12.491
			c3.446,3.971,6.886,8.284,9.705,12.766c0.816,1.298,1.741,2.386,2.673,3.586c0.597,0.77,0.721,1.367,0.887,2.366
			c0.177,1.07,0.302,2.152,0.452,3.227c-1.461-1.943-3.069-3.768-4.417-5.791c-1.377-2.065-3.523-3.277-4.917-5.316
			c-3.125-4.57-7.115-8.379-10.126-13.042c-3.143-4.866-6.539-9.59-9.811-14.359c-1.525-2.222-2.662-4.957-3.923-7.349
			c-1.261-2.394-2.18-4.872-3.239-7.348c-0.542-1.268-1.309-2.421-1.932-3.648c-0.487-0.958-0.903-2.249-1.719-2.982
			c-1.945-1.748-0.526,2.705-0.299,3.306c0.929,2.466,2.241,4.972,3.392,7.354c1.345,2.783,3.123,5.294,4.57,8.011
			c2.066,3.882,4.638,7.513,6.968,11.27c1.692,2.727,3.357,5.484,5.097,8.177c1.625,2.516,3.447,4.715,5.265,7.073
			c1.742,2.261,3.169,5.064,5.156,7.086c0.941,0.958,2.03,1.695,2.844,2.78c0.941,1.253,1.762,2.449,2.87,3.575
			c1.04,1.057,2.097,2.073,3.302,2.943c0.792,0.572,1.045,0.603,1.326,1.467c0.252,0.777,0.218,1.757,0.32,2.574
			c0.111,0.895-0.016,1.065,0.716,1.365c0.456,0.186,0.961,0.144,1.414,0.394c1.122,0.617,1.208,1.931,2.056,2.808
			c-0.623-0.645-0.73-0.778-1.636-0.75c-0.689,0.02-1.378,0.041-2.067,0.063c0.991,7.939,1.642,15.918,2.259,23.892
			c0.58,7.496,0.405,15.086,0.485,22.607c1.145-0.11,2.164,0.484,2.112,1.729c-0.019,0.444-0.163,0.832-0.434,1.187
			c-0.359,0.471-1.271,0.604-1.54,0.998c-0.43,0.63,0.019,2.98,0.106,3.733c0.17,1.473,0.515,2.928,0.845,4.373
			c1.39,6.079,1.232,12.285,1.231,18.5c-0.002,6.468-2.771,12.322-1.355,18.847c0.509,2.345,1.345,4.673,1.478,7.084
			c0.166,2.991-0.858,5.907-1.498,8.787c-0.556-4.466-0.829-8.972-1.513-13.42c-0.734-4.767-2.321-9.246-3.891-13.784
			c-0.006,0.596-0.193,0.903-0.689,1.217c-0.825,0.524-1.194,0.071-1.849-0.448c-1.286-1.019-2.644-1.966-3.552-3.368
			c-0.855-1.32-0.718-2.636,1.066-2.322c1.629,0.287,3.408,1.43,4.34,2.779c-0.811-2.895-1.286-5.878-1.84-8.829
			c-0.57-3.035-1.522-5.948-2.448-8.889c-0.38,0.166-0.761,0.332-1.142,0.498c0.134-0.485,0.508-1.075,0.605-1.528
			c0.106-0.489-0.192-1.289-0.402-1.961c-0.503-1.598-1.004-3.196-1.509-4.794c-0.238-0.753-0.483-1.502-0.76-2.242
			c-0.123-0.331-0.252-0.662-0.384-0.99c0.007-0.425-0.161-0.587-0.502-0.484c-0.523-0.477-1.102-0.901-1.622-1.392
			c-0.631-0.596-1.139-0.714-2.058-0.977c0.887,0.253,2.818,0.98,2.772-0.516c-0.031-1.001-1.24-2.776-1.646-3.694
			c-0.882,0.898-2.654,0.847-2.998-0.532c-0.255-1.019,0.987-2.248,1.969-1.886c-2.098-5.116-4.199-10.35-6.233-15.439
			c-0.448-1.121-0.771-2.397-1.25-3.563c-0.235-0.571-0.344-1.023-0.833-1.244c-0.297-0.134-0.782,0.047-1.108-0.049
			c-0.569-0.168-0.713-0.358-0.903-0.927c-0.126-0.374-0.111-0.845-0.135-1.24c-0.063-1.045-0.11-1.199,0.987-1.155
			c-2.12-4.838-4.4-9.607-6.853-14.284c-0.12-0.228-0.26-0.67-0.445-0.846c-0.324-0.31-0.405-0.053-0.734-0.306
			c-0.461-0.354-0.52-0.535-0.564-1.13c-0.013-0.176,0.261-0.399,0.249-0.551c-0.021-0.257-0.525-0.992-0.613-1.158
			c-0.322-0.608-0.645-1.216-0.968-1.824c-0.395-0.741-0.998-1.318-1.331-2.038c-0.29-0.629-0.455-1.321-0.82-1.993
			c-3.208-5.924-6.597-11.986-10.369-17.569c-1.841-2.725-3.941-5.261-5.849-7.938c-1.893-2.658-3.599-5.467-5.325-8.235
			c-7.166-11.49-16.25-21.564-24.27-32.438c-3.808-5.163-8.232-9.699-12.823-14.162c-2.311-2.246-4.658-4.475-7.087-6.593
			c-1.359-1.186-3.457-3.484-5.349-3.827c-1.652-0.299-0.883,1.305-0.362,2.17c1.566,2.604,3.79,4.876,5.835,7.098
			c2.353,2.556,3.02,6.891,4.32,10.072c0.585,1.431,1.211,2.831,1.859,4.234c0.327,0.708,0.643,1.417,0.911,2.149
			c0.449,1.225,0.793,1.024,2.121,1.227c-1.33-4.377-3.413-8.479-4.642-12.897c2.949,3.029,5.985,5.975,8.743,9.182
			c2.616,3.041,4.94,6.317,7.547,9.368c2.656,3.108,5.256,6.234,7.782,9.448c2.578,3.28,5.418,6.363,7.901,9.713
			c4.971,6.707,9.241,13.885,14.243,20.582c4.555,6.099,8.164,13.121,11.638,19.872c4.057,7.882,7.965,15.865,11.321,24.074
			c3.215,7.861,5.974,15.887,8.923,23.845c1.371,3.699,3.135,7.241,4.388,10.987c1.297,3.876,2.324,7.865,3.462,11.79
			c1.138,3.919,1.647,7.9,2.434,11.894c0.773,3.935,2.174,7.666,3.343,11.49c1.173,3.843,1.712,7.717,2.194,11.694
			c0.569,4.694,1.358,9.318,2.249,13.961c0.824,4.294,1.523,8.604,2.576,12.852c0.099,0.398,1.65,6.614,2.547,5.894
			c0.215,0.9,0.462,1.796,0.783,2.665c0.405,1.097,0.454,1.234-0.072,2.347c-0.87,1.838-1.551,3.675-2.034,5.654
			c-0.745-0.674-1.541-1.291-2.332-1.911c-0.419-0.328-0.948-0.636-1.311-1.022c-0.714-0.759-0.391-0.381-0.657-1.244
			c-0.591-1.916-1.36-3.843-1.786-5.807c-0.421-1.936-1.024-3.849-1.716-5.707c-0.726-1.949-0.923-4.05-1.729-5.951
			c-1.475-3.474-2.065-7.329-2.808-11.021c-0.468-2.329-0.641-4.83-1.47-7.07c-0.662-1.789-1.321-3.589-1.687-5.473
			c-0.355-1.821-0.697-3.151-1.559-4.814c-0.806-1.556-0.916-3.35-1.667-4.957c-0.337-0.722-1.985-4.393-3.151-4.167
			c-1.113,0.216,0.319,3.842,0.47,4.369c0.44,1.527,0.729,3.091,1.161,4.609c0.252,0.886,0.762,1.542,1.213,2.318
			c0.555,0.957,0.679,1.903,0.896,2.964c0.324,1.59,0.868,3.233,1.479,4.733c0.91,2.237,1.549,4.392,2.063,6.768
			c0.594,2.742,1.46,5.432,2.198,8.138c0.617,2.261,1.63,4.372,2.031,6.674c0.38,2.187,1.112,4.299,1.667,6.45
			c0.597,2.317,0.945,4.447,1.896,6.66c-5.402-4.248-10.974-8.747-15.618-13.83c-2.063-2.259-4.032-4.603-6.1-6.859
			c-2.249-2.453-4.786-4.633-7.225-6.893c-5.515-5.11-9.378-11.512-13.662-17.635c-4.229-6.046-8.307-12.192-12.507-18.26
			c-4.476-6.466-7.899-13.949-11.152-21.089c-3.21-7.045-6.404-14.12-9.261-21.318c-3.268-8.235-6.48-16.508-9.058-24.991
			c-1.136-3.74-2.546-7.365-3.861-11.042c-1.23-3.439-2.029-6.918-2.755-10.491c-1.419-6.977-3.181-13.935-4.399-20.946
			c-1.268-7.301-2.381-14.614-2.897-22.008c-0.497-7.117-1.575-14.159-2.113-21.262c-0.266-3.502-0.485-7.038-0.989-10.516
			c-0.185-1.271-1.419-6.582-2.53-2.857c-0.904,3.034-0.735,6.6-0.704,9.732c0.037,3.78,0.302,7.49,0.738,11.243
			c0.844,7.284,1.101,14.699,2.302,21.931c1.211,7.289,2.527,14.51,4.307,21.685c0.454,1.831,0.931,3.658,1.371,5.494
			c0.211,0.882,0.406,1.767,0.592,2.654c0.201,0.96,0.464,1.116,0.936,1.924c0.341,0.585,0.689,1.47,0.525,2.159
			c-0.054,0.23-0.422,0.629-0.446,0.812c-0.037,0.267,0.197,0.898,0.264,1.203c0.428,1.944,0.836,3.896,1.366,5.814
			c1.006,3.635,2.482,7.133,3.779,10.67c0.672,1.829,1.021,3.87,1.788,5.66c0.164,0.384,0.186,0.466,0.395,0.747
			c0.573,0.771,0.493,0.328,0.609,1.165c0.028,0.199-0.184,0.5-0.173,0.764c0.016,0.426,0.287,0.905,0.419,1.315
			c0.315,0.989,0.628,1.978,0.943,2.966c1.216,3.826,2.521,7.633,3.874,11.413c2.667,7.455,5.708,14.74,8.682,22.072
			c0.697,1.717,1.395,3.429,2.127,5.132c0.189,0.438,0.378,0.878,0.566,1.315c0.048,0.111,0.095,0.22,0.142,0.331
			c0.016,0.642,0.218,0.816,0.609,0.522c0.211,0.169,0.282-0.192,0.535,0.402c0.122,0.285-0.37,0.402-0.557,0.428
			c3.33,7.293,6.682,14.66,11.153,21.335c4.378,6.536,8.521,13.211,12.983,19.691c2.178,3.165,4.063,6.506,6.374,9.583
			c2.29,3.051,4.991,5.658,7.757,8.271c4.954,4.682,9.073,10.237,14.277,14.637c5.614,4.747,11.507,9.232,18.117,12.516
			c1.268,0.63,2.967,1.02,4.12,1.818c0.696,0.481,0.496-0.196,0.522,0.811c0.008,0.313-0.196,0.875-0.258,1.149
			c-0.213,0.95-0.42,1.9-0.617,2.855c-0.341,1.655-0.77,3.276-1.314,4.877c-0.118,0.347-0.957,1.895-0.798,2.232
			c0.113,0.238,0.797,0.237,0.855,0.497c0.066,0.3-0.661,0.869-0.818,1.057c-0.141,0.17-0.548,0.18-0.657,0.321
			c-0.186,0.241-0.316,0.961-0.422,1.292c-0.319,0.994-0.628,1.993-0.908,2.998c-0.499,1.799-0.777,3.592-1.036,5.437
			c-0.513,3.646-0.934,7.28-1.283,10.946c-0.685,7.184,0.167,14.367-0.621,21.559c-0.511,4.669-0.994,9.146-0.131,13.807
			c0.681,3.679,1.616,7.155,1.68,10.917c0.126,7.489,0.306,14.981,0.598,22.467c-1.594-2.935-2.494-6.119-4.003-9.12
			c-0.855-1.701-2.054-3.182-2.971-4.848c-0.986-1.792-1.995-3.573-3.011-5.348c-0.167,0.257-0.336,0.514-0.503,0.771
			c-0.576-0.811-0.658-1.65-0.9-2.569c-0.298-1.137-1.013-2.04-1.685-3.041c-1.33-1.979-2.707-3.926-4.065-5.886
			c-1.035-1.494-2.365-2.737-3.382-4.234c-1.141-1.678-2.086-3.443-3.291-5.085c-2.572-3.505-4.45-7.422-7.037-10.899
			c-0.635-0.852-2.036-3.767-3.177-3.925c-1.514-0.211-0.198,2.107,0.14,2.79c0.906,1.826,2.21,3.329,3.27,5.054
			c1.137,1.852,2.237,3.663,3.501,5.437c2.476,3.473,4.962,6.942,7.654,10.234c0.237,0.29,0.764,0.769,0.929,1.008
			c0.327,0.474,0.407,0.901,0.801,1.506c1.37,2.104,2.715,4.222,4.011,6.373c2.424,4.027,4.444,8.281,6.796,12.346
			c0.993,1.717,1.92,3.716,2.502,5.617c0.375,1.225,0.584,2.424,1.151,3.586c0.479,0.981,1.104,1.874,1.448,2.919
			c0.701,2.126,1.006,4.393,1.675,6.546c0.764,2.453,0.68,4.948,0.785,7.511c-1.322-1.975-2.427-4.066-3.718-6.049
			c-1.342-2.061-3.17-3.523-4.335-5.73c-2.452-4.647-5.839-8.689-8.353-13.313c-4.772-8.778-9.63-17.662-12.889-27.114
			c-0.16,0.798-0.712,1.315-1.56,0.981c2.218,5.66,5.042,10.964,7.545,16.49c1.509,3.333,3.134,6.616,4.702,9.92
			c1.57,3.305,3.522,6.216,5.4,9.326c1.85,3.065,3.282,6.462,5.681,9.127c2.236,2.482,3.551,5.579,5.875,8.042
			c0.411,0.436,1.54,1.151,1.786,1.645c0.251,0.505,0.07,1.786,0.076,2.352c0.023,2.101-0.072,4.203-0.124,6.303
			c-0.101,4.176,0.038,8.36,0.041,12.539c0.004,4.483-0.125,8.965,0.694,13.389c0.789,4.259,1.336,8.26,1.336,12.602
			c1.931-2.768,4.282,1.368,5.119,2.912c0.754,1.387,1.282,4.676,0.541,6.202c-0.81,1.667-3.212,1.45-3.991-0.078
			c-0.807-1.585-0.975-3.579-1.669-5.246c0.006,3.644,0.166,7.403-0.518,10.998c-0.758,3.986-1.99,7.892-1.928,11.992
			c0.051,3.384,1.047,6.683,1.308,10.049c0.287,3.699-0.942,7.042-2,10.529c-1.044-3.597-1.525-7.342-2.792-10.873
			c-1.451-4.046-3.932-7.523-5.678-11.416c-1.793-3.997-2.958-8.204-4.889-12.157c-1.911-3.91-3.906-7.868-6.203-11.569
			c-2.338-3.768-4.982-7.368-7.368-11.115c-2.538-3.986-5.127-7.926-7.752-11.854c-4.438-6.637-9.593-12.748-14.83-18.763
			c-4.843-5.561-10.004-11.307-15.718-15.988c-0.103,0.852-0.201,2.075-1.315,1.793c-0.942-0.238-1.548-1.756-1.685-2.57
			c-0.063-0.372,0.113-1.005,0.012-1.315c-0.16-0.492-0.787-0.853-1.256-1.242c-1.13-0.94-2.193-1.954-3.232-2.991
			c-4.363-4.358-8.967-8.22-13.874-11.945c-9.068-6.883-17.37-14.59-25.629-22.402c-2.361-2.232-4.404-4.752-6.57-7.165
			c-0.949-1.056-1.91-2.274-3.17-2.969c-0.129-0.071-0.4-0.051-0.5-0.117c-0.122-0.081-0.475-0.657-0.636-0.682
			c-0.565-0.088-0.69,0.293-0.763,0.86c-1.06-1.803-3.039,4.197-3.187,4.723c-0.782,2.766-1.327,5.63-1.622,8.491
			c-0.592,5.726-0.189,11.58-0.135,17.327c1.531-0.442,1.333,1.048,1.711,2.069c0.485,1.309,1.582,2.221,2.628,3.086
			c-0.301-5.47-0.103-11-0.147-16.478c-0.041-5.066,0.595-10.015,0.965-15.054c0.789,5.311,1.904,10.683,3.485,15.821
			c0.786,2.552,1.111,5.168,2.154,7.639c0.74,1.752,1.238,3.539,1.774,5.362c1.627,5.529,3.326,11.052,5.175,16.51
			c0.845,2.494,2.112,4.784,3.128,7.209c0.988,2.359,1.631,4.927,2.743,7.218c0.495,1.021,1.187,1.894,1.786,2.85
			c0.732,1.166,1.066,2.46,1.591,3.72c0.981,2.354,2.447,4.692,4.04,6.678c0.859,1.073,2.897,3.205,2.089,0.384
			c-0.678-2.362-1.919-4.637-2.925-6.874c-1.077-2.389-1.809-4.579-3.307-6.758c-1.44-2.095-2.03-4.648-3.077-6.949
			c-1.183-2.601-2.676-5.086-3.708-7.744c-1.073-2.765-1.989-5.58-3.033-8.354c-1.149-3.051-2.202-6.142-3.212-9.243
			c-0.884-2.716-2.18-5.382-2.699-8.191c-0.544-2.947-1.415-5.808-2.003-8.747c-0.618-3.085-0.743-6.255-1.544-9.296
			c3.683,6.415,9.54,10.849,14.798,15.876c5.466,5.226,11.578,9.781,17.73,14.166c3.122,2.225,6.227,4.417,9.095,6.971
			c2.814,2.504,5.41,5.275,8.345,7.638c4.058,3.268,7.944,6.454,11.435,10.331c5.08,5.642,10.113,11.356,14.597,17.491
			c4.712,6.444,9.045,13.049,13.123,19.914c3.925,6.609,8.15,12.963,11.656,19.806c1.682,3.283,3.208,6.618,4.438,10.096
			c1.287,3.639,2.459,7.149,4.296,10.561c0.358,0.664,0.734,1.91,1.269,2.439c0.484,0.477,0.874,0.188,1.532,0.569
			c1.708,0.989,1.592,3.263,1.254,4.855c-0.336,1.582,0.445,3.458,0.83,5.077c0.475,1.999,1.076,3.937,1.752,5.876
			c0.667,1.915,1.248,3.858,1.874,5.787c0.3,0.923,0.831,1.978,0.982,2.94c0.148,0.951-0.136,2.069-0.248,3.043
			c-0.12,1.037-0.426,2.229-0.341,3.265c0.006,0.068-0.155,0.701-0.093,0.805c0.148,0.255,0.792,0.186,1.003,0.436
			c0.702,0.83,0.158,3.714-1.26,2.786c-0.077,2.21-0.066,4.462,0.061,6.668c0.063,1.11,0.17,2.236,0.442,3.317
			c0.323,1.283,0.342,1.414-0.298,2.668c1.562-1.135,2.629,1.692,3.699,2.111c0.591,0.23,1.709,0.165,1.307,1.284
			c-0.261,0.726-1.145,0.62-1.714,0.873c-1.209,0.537-2.985,2.386-3.997,0.506c-0.494-0.919-0.276-2.487-0.047-3.491
			c-0.171,0.308-0.009,0.293-0.109,0.519c-1.003-0.754-1.774-2.297-2.711-3.208c-1.309-1.274-2.484-2.513-3.629-3.935
			c-2.438-3.025-5.378-5.577-7.674-8.719c-1.417-1.939-3.238-3.472-4.627-5.435c-2.346-3.316-4.672-6.692-6.604-10.27
			c-1.817-3.365-3.993-6.523-5.741-9.904c-0.35-0.676-0.658-1.713-1.16-2.282c-0.614-0.696-0.059-0.286-0.871-0.489
			c-0.288-0.072-1.384-0.114-1.67,0.018c-0.653,0.299-0.277,0.736,0.049,1.451c0.368,0.808,0.843,1.57,1.279,2.342
			c1.797,3.18,3.999,6.106,5.878,9.252c2.142,3.587,4.607,6.939,7.122,10.271c1.145,1.517,2.36,2.817,3.648,4.201
			c1.343,1.442,2.254,3.227,3.545,4.716c1.336,1.542,2.669,3.079,3.986,4.64c1.385,1.643,2.511,3.448,4.113,4.901
			c-4.661-1.974-9.271-3.995-13.823-6.213c-4.506-2.195-8.617-4.782-12.853-7.446c-4.24-2.667-9.009-4.305-13.264-6.917
			c-4.351-2.671-8.104-6.37-12.087-9.542c-0.016,0.753,0.516,0.663,0.579,1.061c0.072,0.461,0.029,0.305,0,0.7
			c-0.482,0.17-0.62,0.506-0.416,1.008c0.007,0.228,0.015,0.456,0.022,0.685c0.282,0.245,1.358-0.017,1.756,0.126
			c1.014,0.364,1.255,1.193,0.594,2.099c-0.995,1.365-1.958,0.18-3.079,0.714c4.027,3.442,7.764,7.005,12.486,9.505
			c-0.017-0.992,0.649-2.04,1.683-2.058c0.373-0.007,1.553,0.291,1.852,0.608c0.331,0.35,0.343,1.203,0.56,1.625
			c0.319,0.621,1.208,1.44,0.553,2.148c3.447,1.679,6.551,3.825,9.802,5.841c3.625,2.249,7.55,3.94,11.521,5.479
			c3.635,1.409,7.321,2.6,11.143,3.389c1.589,0.329,3.196,0.608,4.814,0.751c0.572,0.051,1.142,0.055,1.714,0.088
			c1.235,0.07,0.978,0.096,0.569,1.386c-1.26,3.985-2.097,8.008-3.89,11.809c-1.809,3.833-3.45,7.536-4.592,11.627
			c-1.144,4.093-2.424,8.235-3.151,12.427c-0.693,4-0.925,8.105-2.018,12.028c-1.114,4.001-2.883,7.921-3.352,12.074
			c-0.453,4.006,0.432,8.048-0.268,12.031c-1.12,6.383-2.424,12.733-3.487,19.128c-1.455,8.756-2.464,17.617-4.239,26.312
			c-0.859,4.211-1.361,8.511-1.918,12.771c-0.559,4.279-1.018,8.392-0.479,12.695c0.559,4.473,0.434,8.729,0.242,13.224
			c-0.188,4.403-0.23,8.616-1.129,12.947c-0.987,4.751-1.274,8.825,0.038,13.544c1.089,3.911,1.893,7.244,1.343,11.34
			c-1.104-4.439-3.52-8.234-5.086-12.508c-1.763-4.812-4.642-8.967-7.089-13.418c-2.643-4.806-5.467-9.486-8.524-14.039
			c-2.816-4.195-5.536-8.526-8.631-12.518c0.086,0.604-0.719,0.84-1.135,1.001c3.519,4.529,6.468,9.583,9.476,14.457
			c1.886,3.056,3.656,6.165,5.346,9.334c1.528,2.864,3.241,5.641,4.729,8.519c1.409,2.724,2.688,5.541,3.655,8.45
			c1.017,3.06,2.852,5.739,3.827,8.789c0.483,1.509,0.813,3.056,1.338,4.553c0.424,1.208,1.142,2.507,1.371,3.76
			c0.298,1.636,0.163,3.496,0.364,5.175c0.211,1.752,0.478,3.494,0.758,5.236c-1.638-2.426-3.343-4.809-4.993-7.229
			c-1.481-2.172-2.525-4.585-4.182-6.642c-3.996-4.958-6.349-10.859-9.635-16.29c-3.634-6.004-6.115-12.739-8.732-19.238
			c-1.597-3.964-3.137-7.938-4.599-11.955c-1.169-3.211-2.527-6.184-3.434-9.499c-0.992-3.624-2.324-7.147-3.363-10.759
			c1.115,2.23,2.555,4.271,3.777,6.439c1.231,2.185,2.357,4.395,3.897,6.384c0.079-0.781,0.66-1.215,0.497-1.875
			c-0.18-0.727-1.062-1.677-1.431-2.364c-0.994-1.848-1.964-3.699-3.024-5.511c-1.787-3.055-3.372-6.29-4.563-9.628
			c-1.092-3.061-2.189-6.239-3.059-9.37c-0.415-1.491-0.599-3.746-1.487-5.054c-0.834-1.229-1.053,0.1-1.042,1.057
			c-1.027-1.207-0.641,1.804-0.594,2.077c0.336,2.006,0.873,4.007,1.51,5.935c1.291,3.908,2.267,7.89,3.518,11.809
			c1.356,4.249,3,8.399,4.236,12.685c0.975,3.381,2.543,6.508,3.707,9.822c2.137,6.085,4.464,12.086,6.699,18.133
			c0.782,2.115,1.657,4.19,2.529,6.27c0.38,0.905,0.754,1.815,1.179,2.699c0.1,0.207,0.307,0.871,0.505,0.981
			c0.234-0.231,0.471-0.28,0.714-0.149c0.222,0.054,0.406,0.178,0.551,0.368c1.076,0.696,0.484,0.49,0.416,1.032
			c-0.025,0.201-0.61,0.412-0.622,0.606c-0.015,0.239,0.614,1.076,0.722,1.276c0.972,1.806,1.882,3.65,2.842,5.464
			c1.896,3.581,3.449,7.009,5.983,10.205c1.152,1.453,1.938,3.071,2.889,4.65c0.9,1.496,2.034,2.853,3.113,4.223
			c1.265,1.605,2.612,3.087,4.104,4.488c0.495,0.465,1.296,0.917,1.672,1.462c0.498,0.721,0.542,2.072,0.77,2.976
			c0.899,3.566,2.21,7.529,4.419,10.517c4.728,6.399,6.396-5.52,6.623-8.429c0.173-2.206,0.27-4.421,0.415-6.63
			c0.051-0.793-0.026-1.764,0.211-2.491c0.169-0.518,0.484-1.011,0.635-1.568c0.247-0.919,0.238-2.057,0.578-2.929
			c0.258-0.659,0.716-1.371,1.048-1.991c0.407-0.762,1.029-1.397,1.394-2.172c0.236-0.503,0.287-1.063,0.551-1.562
			c0.879-1.655,2.265-3.216,3.483-4.627c1.183-1.371,1.682-3.086,2.892-4.413c0.768-0.84,1.057-0.962,1.469-2.028
			c0.319-0.827,0.758-1.032,1.29-1.762c0.561-0.771,1.674-3.268,0.181-3.501c-0.999-0.156-2.506,2.05-3.188,2.74
			c-0.775,0.785-0.593,1.267-1.082,2.217c-0.356,0.694-1.083,1.227-1.509,1.924c-0.539,0.88-0.73,1.829-1.24,2.711
			c-0.498,0.862-1.147,1.629-1.67,2.475c-0.582,0.943-1.098,1.928-1.651,2.889c-0.501,0.87-0.665,2.087-1.348,2.784
			c1.079-8.233,2.057-16.494,3.493-24.674c0.659-3.753,1.713-7.426,2.472-11.158c0.817-4.02,1.272-8.07,1.691-12.147
			c-1.427,0.991-4.664,1.481-5.712-0.239c-1.063,9.156-3.583,18.003-4.588,27.159c-1.6-5.12-0.052-9.689,0.371-14.836
			c0.207-2.519-0.012-5.076-0.051-7.6c-0.045-2.889,0.042-5.797-0.103-8.681c-0.129-2.546-0.777-5.021-1.178-7.529
			c-0.435-2.722-0.288-5.356-0.114-8.091c0.345-5.464,0.726-10.91,1.493-16.333c0.799-5.643,1.039-11.389,1.55-17.065
			c0.487-5.405,0.983-10.8,1.644-16.187c0.66-5.376,1.84-10.61,1.629-16.044c-0.095-2.426-0.164-4.854,0.392-7.234
			c0.647-2.775,1.804-5.436,2.778-8.107c1.733-4.751,2.241-9.731,3.615-14.568c1.432-5.041,3.101-10.409,5.324-15.16
			c2.207-4.715,4.889-8.901,6.221-14.001c0.638-2.44,1.111-4.916,1.91-7.311c0.807-2.418,1.651-4.839,2.135-7.348
			c0.168-0.869,0.013-2.213,0.328-3.001c0.28-0.702,1.632-1.711,2.183-2.338c1.701-1.938,3.951-3.299,5.798-5.102
			c3.564-3.477,6.747-7.342,10.157-10.98c3.64-3.884,6.936-8.147,10.155-12.383c1.302-1.714,2.251-3.641,3.626-5.303
			c1.771-2.14,3.354-4.344,5.004-6.575c3.123-4.222,6.387-8.191,9.072-12.719c0.315-0.53,1.501-2.131,1.221-2.835
			c-0.285-0.718-0.956-0.081-1.413,0.059c-2.382,0.724-4.129,1.848-6.132,3.365c-2.053,1.554-4.237,2.848-6.231,4.496
			c-2.15,1.777-4.184,3.686-6.322,5.48c-1.394,1.17-2.411,2.677-3.718,3.932c-1.833,1.761-3.709,3.477-5.53,5.252
			c1.378-0.289,0.984,0.948,0.268,1.493c-0.428,0.327-1.052,0.608-1.573,0.658c-0.158,0.016-0.421-0.374-0.548-0.339
			c-0.355,0.099-0.826,0.823-1.078,1.072c-1.3,1.284-2.642,2.522-3.933,3.818c-0.519,0.522-1.583,1.319-1.52,1.911
			c0.064,0.605,0.827,1.4,0.95,2.11c2.201-3.163,5.318-5.853,7.952-8.655c2.635-2.802,5.503-5.425,7.987-8.355
			c1.146-1.351,2.564-2.278,3.937-3.371c1.481-1.177,2.84-2.481,4.352-3.623c2.862-2.159,5.89-4.087,8.794-6.19
			c-0.565,0.782-1.058,1.606-1.57,2.422c-0.333,0.531-1.84,2.097-1.851,2.645c-0.01,0.456,0.782,0.826,0.689,1.501
			c-0.113,0.832-1.233,1.623-1.793,2.103c0-0.736,0-1.473,0-2.21c-1.475,1.898-2.833,3.938-4.143,5.954
			c-1.477,2.272-3.129,4.317-4.74,6.487c-1.146,1.542-1.981,3.272-3.189,4.773c-1.758,2.186-3.567,4.331-5.417,6.439
			c-3.601,4.104-7.805,7.671-11.322,11.83c-3.268,3.865-7.554,6.475-10.983,10.132c-0.708-0.874-1.032-0.495-0.588-1.639
			c0.309-0.797,0.615-1.593,0.927-2.388c0.562-1.434,1.126-2.864,1.614-4.325c1.001-3,2.195-4.945,4.387-7.228
			c0.935-0.974,1.748-2.068,2.608-3.109c0.381-0.461,0.769-0.912,1.124-1.394c0.7-0.95,0.692-1.03-0.225-1.8
			c-0.909-0.763-0.689-0.642-1.408-0.014c-0.394,0.342-0.722,0.89-1.066,1.284c-0.941,1.073-1.849,2.219-2.871,3.217
			c0.462-2.147,1.035-4.205,1.766-6.278c-0.695-0.156-1.83-0.422-2.531-0.218c-1.004,0.292-0.549,0.312-0.969,1.133
			c-0.691,1.349-2.132,0.638-1.969-0.784c0.135-1.169,1.65-1.508,2.458-2.112c1.173-0.876,2.49-1.374,3.902-0.71
			c1.211-3.849,1.829-7.517,1.268-11.558c-0.564-4.058-1.864-7.944-1.478-12.08c0.401-4.292,1.616-8.476,1.554-12.809
			c-0.06-4.278-0.307-8.555-0.539-12.827c-0.058-1.064,0.064-2.489-0.239-3.515c-0.204-0.691-0.754-1.104-0.805-1.81
			c0.015-0.051,0.031-0.101,0.045-0.152c0.423-0.213,0.519-0.523,0.291-0.93c0.008-0.292-0.164-0.785-0.221-1.044
			c-0.273-1.242-0.593-2.474-0.899-3.709c-1.077-4.336-1.214-8.667-1.492-13.11c-0.28-4.482-0.648-8.964-0.783-13.453
			c-0.013-0.443-0.377-2.547-0.089-2.93c0.173-0.228,2.032-0.456,2.311-0.531c1.868-0.497,3.682-1.095,5.474-1.815
			c8.465-3.409,16.556-7.688,24.429-12.291c-2.362-0.665-4.571-1.266-4.665-4.052c-4.99,2.874-9.897,5.875-14.83,8.846
			c-4.244,2.556-8.748,4.808-12.821,7.637c-0.075-1.307-0.199-2.606-0.329-3.909c-0.125-1.243-0.578-2.883-0.368-4.1
			c0.193-1.125,0.867-2.398,1.427-3.384c0.477-0.841,0.554-1.555,0.831-2.455c0.5-1.627,1.589-3.189,2.398-4.67
			c0.705-1.292,1.517-2.509,2.259-3.778c0.662-1.133,0.93-2.403,1.541-3.57c0.465-0.887,1.257-1.599,1.674-2.484
			c0.438-0.929,0.318-1.784,0.92-2.667c0.526-0.771,2.69-4.857,0.93-5.22c-1.216-0.251-2.727,3.073-3.393,3.946
			c-0.78,1.023-0.666,1.793-1.063,2.919c-0.384,1.09-1.286,2.041-1.734,3.157c-0.544,1.356-0.809,2.682-1.477,4.01
			c-0.714,1.422-1.408,2.828-2.031,4.296c-0.896,2.109-1.44,4.466-2.683,6.356c-0.268-2.714-0.523-5.428-0.797-8.142
			c-0.143-1.416-0.413-2.888-0.428-4.309c-0.016-1.502,0.563-2.944,0.963-4.405c1.332-4.869,2.545-9.939,5.014-14.375
			c2.496-4.485,4.629-9.172,7.164-13.635c1.066-1.876,2.273-3.664,3.242-5.595c1.189-2.371,2.038-4.896,3.273-7.246
			c2.349-4.472,5.289-8.696,7.838-13.063c2.623-4.492,5.121-9.012,8.046-13.318c5.089-7.491,10.347-14.931,15.918-22.075
			c3.766-4.83,7.466-9.777,11.372-14.489c1.843-2.224,4.013-4.17,5.969-6.295c2.026-2.201,3.997-4.45,6.096-6.583
			c-0.826-0.116-1.805-0.45-2.468-0.057c-0.763,0.452-1.585,1.758-2.165,2.411c-1.262,1.419-2.484,2.873-3.778,4.264
			c-2.689,2.89-5.274,5.704-7.622,8.885c-3.649,4.943-7.783,9.534-11.551,14.389c-4.781,6.159-9.469,12.383-13.981,18.743
			c-4.396,6.196-7.875,12.975-12.023,19.336c-2.351,3.605-4.563,7.133-6.261,11.102c-1.46,3.413-3.615,6.412-5.217,9.748
			c1.13-3.943,2.691-7.493,4.591-11.122c1.929-3.683,3.647-7.461,5.532-11.164c4.169-8.187,8.021-16.567,13.071-24.254
			c1.238-1.883,2.502-3.749,3.786-5.602c0.687-0.991,1.381-1.977,2.078-2.961c0.257-0.364,0.512-0.732,0.774-1.091
			c0.241-0.333,0.487-0.662,0.737-0.987c0.449-0.254,0.506-0.506,0.172-0.758c0.054-0.432-0.448-0.281,0.025-0.825
			c0.281-0.321,0.359-0.01,0.641-0.166c0.148,0.031,0.297,0.062,0.446,0.093c0.27-0.349,0.539-0.698,0.809-1.047
			c0.274-0.356,0.549-0.713,0.821-1.071c1.442-1.892,2.871-3.794,4.325-5.676c3.144-4.07,6.39-8.057,9.722-11.975
			c5.132-6.036,10.53-11.794,16.038-17.487c-1.987-0.909,1.927-4.922,3.243-5.122c0.317-0.048,0.807,0.155,1.075,0.079
			c0.493-0.139,1.089-1.029,1.492-1.469c1.002-1.096,2.026-2.172,3.115-3.181c4.909-4.549,10.333-8.572,15.369-12.987
			c4.622-4.054,9.476-7.798,14.386-11.495c5.213-3.926,10.854-7.219,16.058-11.154c-0.92,2.078-1.545,4.458-2.746,6.37
			c-1.332,2.12-2.795,4.158-4.047,6.332c-1.218,2.113-2.733,3.954-4.038,6c-0.91,1.426-1.543,2.979-2.526,4.365
			c-2.785,3.93-5.647,7.875-8.764,11.549c-3.224,3.801-5.918,7.943-9.111,11.755c-1.459,1.741-3.143,3.076-4.322,5.058
			c-1.26,2.118-3.045,3.581-4.557,5.497c-1.369,1.733-2.794,3.542-3.742,5.548c-0.804,1.7-0.269,1.999,1.157,0.897
			c1.915-1.479,3.497-3.418,5.154-5.165c1.643-1.735,3.151-3.067,4.338-5.17c1.111-1.966,2.734-3.347,4.11-5.11
			c1.57-2.013,2.91-4.097,4.293-6.235c1.55-2.396,3.473-4.566,5.189-6.843c1.808-2.399,3.479-4.908,5.169-7.39
			c1.502-2.207,2.989-4.346,4.245-6.701c1.337-2.507,3.366-4.607,4.87-7.027c-2.286,6.157-5.143,12.104-7.781,18.115
			c-2.6,5.923-5.234,11.917-8.308,17.61c-3.002,5.56-5.713,11.307-8.821,16.801c-3.176,5.614-6.707,11.068-10.278,16.436
			c-4.203,6.316-8.539,12.523-13.203,18.51c0.482,0.117,0.964,0.236,1.446,0.353c0.74,0.18,0.626,0.238,1.18-0.204
			c0.686-0.546,1.26-1.694,1.766-2.391c1.339-1.849,2.644-3.722,3.946-5.597c2.437-3.511,4.745-7.101,7.048-10.7
			c3.405-5.319,6.77-10.719,9.804-16.258c2.076-3.788,3.898-7.708,5.969-11.502c2.047-3.75,4.228-7.428,6.024-11.31
			c3.639-7.865,7.563-15.621,11.021-23.566c0.989-2.272,1.877-4.586,2.725-6.913c0.707-1.937,1.183-4.425,2.252-6.167
			c0.509-0.83,1.205-1.547,1.712-2.39c0.45-0.748,0.402-0.558,0.151-1.185c-0.164-0.411-0.476-0.713-0.6-1.178
			c-0.482-1.797-0.027-3.982,0.136-5.802c0.654,0.18,1.252,0.547,1.893,0.728c0.833,0.235,0.618,0.282,1.448-0.368
			c1.078-0.846,2.157-1.692,3.263-2.504c2.207-1.62,4.444-3.197,6.61-4.872c-1.692,2.332-3.094,4.794-4.452,7.331
			c-0.698,1.306-1.391,2.608-1.985,3.965c-0.257,0.588-0.768,1.38-0.841,2.014c-0.083,0.715,0.227,1.649,0.239,2.392
			c-1.068-0.178-0.837-0.245-1.38,0.453c-0.378,0.486-0.54,1.357-0.771,1.947c-0.513,1.306-0.997,2.624-1.532,3.921
			c-1.037,2.51-2.167,4.98-3.211,7.487c-2.127,5.102-3.78,10.389-5.435,15.659c0.612,0.11,3.309,0.972,3.76,0.691
			c0.528-0.329,0.946-2.749,1.165-3.365c0.857-2.415,1.702-4.841,2.625-7.231c1.788-4.633,4.103-9.041,5.921-13.66
			c1.756-4.464,3.468-8.91,5.463-13.274c0.926-2.026,1.872-4.05,2.754-6.096c0.428-0.993,0.861-2.004,1.145-3.05
			c0.126-0.465,0.167-0.914,0.255-1.381c0.039-0.206-0.238-0.657-0.202-0.77c0.228-0.71,2.516-2.122,0.865-2.655
			c-0.967-0.312-2.751,0.804-3.56,1.199c-4.336,2.115-8.529,4.814-12.394,7.692c-8.12,6.041-16.517,11.701-24.404,18.046
			c-8.087,6.505-15.641,13.639-23.532,20.378c-3.902,3.332-7.071,7.211-10.517,10.983c-0.981,1.075-2.194,2.032-3.105,3.167
			c-0.311,0.387-0.266,0.752-0.679,1.12c-0.393,0.35-0.854,0.521-1.271,0.865c-0.985,0.812-1.843,1.865-2.738,2.778
			c-7.441,7.593-14.474,15.621-21.146,23.895c-6.349,7.871-12.849,15.825-18.057,24.524c-2.925,4.885-5.396,10.089-8.101,15.102
			c-2.573,4.771-4.982,9.619-7.581,14.375c-2.61,4.774-4.559,9.559-5.905,14.842c-1.253,4.918-3.24,9.472-4.931,14.241
			c-0.189-3.204-0.154-6.436-0.771-9.595c-0.589-3.016-1.474-5.994-1.614-9.082c-0.28-6.195,1.698-12.375,1.863-18.579
			c0.16-6.037,0.671-11.898,1.835-17.831c0.619-3.154,1.148-6.368,2.226-9.404c0.956-2.689,2.104-5.304,3.079-7.983
			c-0.968,0.234-0.63-0.362-0.721-1.196c-0.063-0.561,0.003-1.532-0.226-2.045c-0.488-1.098-1.527-1.407-2.478-1.917
			c-0.465-0.249-1.51-0.758-1.553-1.394c-0.055-0.804,1.218-1.215,1.577-1.74c0.494-0.721,0.283-1.423,1.168-1.964
			c0.992-0.607,2.414-0.273,3.435-0.799c0.145-0.076,0.537-0.456,0.715-0.593c0.781-0.602,0.394,0.257,0.917-0.782
			c0.616-1.224,0.875-3.001,1.277-4.324c0.62-2.037,0.843-4.391,2.06-6.136c0.684-0.982,1.12-2.105,1.762-3.112
			c0.664-1.042,1.554-1.879,2.387-2.783c3.403-3.695,6.016-8.034,9.268-11.861c3.402-4.005,6.693-8.082,9.965-12.194
			c1.364-1.714,2.403-3.633,3.758-5.34c1.602-2.02,3.259-3.913,4.764-6.014c2.799-3.909,5.875-7.466,8.2-11.692
			c0.418-0.761,0.787-1.513,1.335-2.174c0.412-0.495,1.897-1.586,1.803-2.354c-0.205-1.685-3.218,1.007-3.793,1.497
			c-4.164,3.55-7.788,7.659-11.799,11.36c-3.06,2.823-5.721,5.977-8.732,8.878c0.518,0.15,0.907,0.782,1.199,1.182
			c5.086-5.391,10.049-11.143,15.992-15.638c-1.5,2.245-3.178,4.394-4.728,6.611c-1.385,1.983-2.615,4.022-4.18,5.875
			c-1.476,1.749-2.539,3.695-3.915,5.501c-1.151,1.512-2.438,2.94-3.675,4.381c-3.403,3.968-6.976,7.762-10.448,11.665
			c-1.578,1.774-2.859,3.789-4.384,5.614c-1.594,1.908-3.544,3.598-5.005,5.597c-0.305-1.124-1.114-2.116-2.321-2.293
			c0.338-1.348,0.39-2.846,1.312-3.846c0.914-0.99,1.717-1.719,2.465-2.885c1.372-2.14,3.347-3.642,5.039-5.523
			c1.768-1.967,3.27-4.134,5.104-6.032c2.063-2.133,4.151-4.239,6.217-6.368c-0.661-0.192-0.852-0.832-1.199-1.404
			c-3.023,2.915-6.491,5.607-9.09,8.914c-1.204,1.531-2.567,2.968-3.966,4.324c-1.371,1.331-2.923,2.354-4.002,3.967
			c0.382-2.324,0.623-4.677,1.045-6.993c0.402-2.198,1.098-4.326,1.615-6.497c1.096-4.604,0.462-8.503-0.821-13
			c-0.578-2.028-1.108-4.031-1.06-6.154c0.056-2.467,0.556-4.906,0.906-7.342c0.128-0.886,0.63-2.93,0.065-3.392
			c-0.521-0.426-2.098-0.492-2.782-0.821c-1.909-0.918-3.414-2.486-4.622-4.197c2.88-2.235,6.741,0.776,7.68,3.769
			c-0.183-4.09-0.498-8.177-0.796-12.26c-0.321-4.417-1.904-8.392-2.721-12.702c-0.4-2.102-0.421-4.305-0.586-6.437
			c-0.081-1.052-0.163-2.104-0.245-3.155c-0.043-0.557,0.014-1.235-0.141-1.775c-0.202-0.71-0.085-0.518-0.62-1.02
			c-1.086-1.019-2.564-2.057-2.774-3.678c-0.235-1.805,1.325-2.498,2.83-2.091c-1.008-14.844-3.858-29.399-6.419-44.042
			c8.052,1.308,16.333-1.004,23.874-3.589c3.754-1.286,7.513-2.493,11.018-4.388c3.835-2.074,7.148-4.955,10.958-7.044
			c3.827-2.098,7.746-3.825,11.403-6.239c3.57-2.356,7.125-4.71,10.501-7.342c3.507-2.733,6.645-5.893,10.091-8.696
			c3.667-2.982,7.218-6.042,10.753-9.179c8.837-7.842,17.037-16.492,24.283-25.844c2.832-3.655,5.811-7.235,8.385-11.08
			c2.559-3.823,4.601-7.966,7.17-11.786c1.976-2.937,4.223-5.719,6.003-8.78c0.237-0.409,0.812-1.089,0.886-1.564
			c0.096-0.626-0.274-0.337-0.321-0.965c-0.084-1.155,0.322-0.868,1.12-1.246c0.529-0.25,0.269-0.06,0.704-0.569
			c0.401-0.469,0.671-1.271,0.959-1.818c0.589-1.117,1.181-2.233,1.783-3.344c2.43-4.478,4.788-9.062,6.935-13.683
			c2.117-4.553,4.712-8.907,6.328-13.674c1.582-4.668,3.05-9.428,4.24-14.209c0.244-0.983,2.563-8.299,0.725-8.902
			C709.425,273.316,710.214,271.253,709.733,270.832z M688.949,110.59c-0.45-0.178,0.064-0.424,0.078-0.499
			C689.087,109.802,689.543,110.827,688.949,110.59z M600.16,156.212c-0.008,0.117-0.037,0.229-0.087,0.336
			C599.435,156.349,599.751,155.891,600.16,156.212z M484.159,54.365c0.199,0.153,0.407,0.293,0.624,0.421
			C484.566,54.658,484.358,54.518,484.159,54.365z M493.315,99.757c1.554-0.111,1.143,2.314,1.306,3.2
			c0.181,0.985,2.006,3.503-0.401,3.531c-2.057,0.024-0.708-2.477-0.998-3.29c-0.021-0.058-0.529-0.437-0.601-0.548
			c-0.241-0.363-0.295-0.809-0.318-1.235C492.264,100.712,492.468,99.816,493.315,99.757z M521.584,96.651
			c-0.743,0.833-2.953,0.362-2.329-0.872C519.785,94.733,522.461,95.665,521.584,96.651z M551.47,254.481
			c0.44-0.476,1.369-0.096,1.579,0.438c0.293,0.74-0.508,1.353-0.948,1.928C551.654,256.123,550.728,255.285,551.47,254.481z
			 M525.851,337.92c-1.063-2.554-2.406-4.998-3.806-7.379c-1.271-2.161-2.106-4.557-3.553-6.609
			c-0.991-1.406-1.848-2.799-2.659-4.312c-2.572-4.804-5.053-9.632-7.436-14.531c-2.269-4.666-4.873-8.94-6.632-13.845
			c-0.811-2.259-2.381-4.042-3.059-6.371c-0.724-2.49-1.681-4.898-2.818-7.232c-0.315-0.647-1.903-4.231-2.421-2.352
			c-0.242,0.877,0.253,2.253,0.441,3.1c0.318,1.433,0.714,2.832,1.158,4.23c0.77,2.425,1.211,4.756,2.61,6.927
			c1.298,2.014,1.875,4.164,2.93,6.289c1.247,2.511,2.758,4.767,4.159,7.174c1.448,2.487,2.628,5.129,4.022,7.644
			c1.529,2.759,3.168,5.457,4.74,8.193c1.369,2.384,2.979,4.62,4.34,6.99c1.453,2.529,2.656,5.374,3.934,8.008
			c1.4,2.889,2.262,5.981,3.614,8.868c-0.181-0.088-0.361-0.176-0.542-0.264c-3.121-1.39-6.33-2.809-9.265-4.558
			c-2.793-1.665-5.293-3.697-7.922-5.597c-4.14-2.991-8.127-6.16-11.996-9.495c-2.079-1.792-4.184-3.529-6.107-5.491
			c-2.336-2.384-4.355-5.062-6.448-7.657c-3.092-3.831-6.715-7.11-9.408-11.265c-7.556-11.655-13.349-23.987-17.779-37.135
			c-1.106-3.28-2.105-6.594-3.101-9.909c-0.893-2.973-2.163-5.793-3.148-8.761c-2.043-6.158-3.292-12.647-4.064-19.069
			c-0.437-3.641-1.378-7.01-2.492-10.492c-1.006-3.142-1.431-6.206-1.69-9.486c-0.578-7.305-2.176-14.817-4.409-21.794
			c3.349,2.202,5.236,5.569,7.681,8.667c1.199,1.52,2.096,2.997,3.068,4.662c0.774,1.326,1.867,2.393,2.588,3.755
			c1.958,3.697,3.588,7.537,5.091,11.434c1.324,3.432,3.373,6.574,4.45,10.097c0.574,1.876,1.374,3.092,2.365,4.753
			c0.921,1.543,1.278,3.339,2.222,4.912c0.672,1.119,1.797,3.187,3.064,3.701c1.76,0.714,0.194-2.587-0.061-3.212
			c-0.654-1.604-1.378-3.18-1.902-4.829c-0.585-1.837-1.925-2.997-2.669-4.71c-0.72-1.658-1.249-3.348-2.039-4.991
			c-0.991-2.061-2.227-3.928-3.167-6.029c-3.841-8.584-8.672-16.398-13.951-24.141c5.539,3.155,10.331,7.227,15.318,11.168
			c5.156,4.075,10.628,8.221,15.172,12.982c2.293,2.403,4.322,5.025,6.535,7.498c2.209,2.469,4.76,4.606,6.884,7.151
			c3.708,4.447,6.884,9.494,9.844,14.46c5.565,9.339,10.117,19.066,13.891,29.267c2.183,5.904,4.899,11.646,6.645,17.694
			c0.86,2.979,1.79,5.967,2.409,9.008c0.649,3.186,0.786,6.455,1.507,9.633c0.729,3.215,2.12,6.253,2.764,9.491
			c0.672,3.378,0.43,6.88,0.874,10.288c0.865,6.627,1.403,13.946,3.703,20.265C527.376,343.783,526.65,339.841,525.851,337.92z
			 M536.985,363.08c-0.088-0.27-0.095-0.592-0.139-0.874c0.236,0.042,0.572,0.164,0.78,0.281
			C537.42,362.678,537.218,362.926,536.985,363.08z M536.433,347.668c-0.92,0.419-1.884,0.484-2.876,0.374
			c-1.622-0.177-1.719-0.647-2.635-1.868c0.48-1.783,2.155-2.9,3.775-3.716c1.503-0.756,4.551-2.023,5.029,0.573
			C540.063,344.854,537.937,346.983,536.433,347.668z M542.124,430.716c-0.489-0.026-0.278-2.439,0.541-2.654
			c1.457-0.382,2.521,1.74,2.746,2.812C544.316,430.812,543.22,430.769,542.124,430.716z M519.862,466.727
			c-0.384-0.572-0.772-1.148-1.155-1.714C519.09,465.58,519.478,466.156,519.862,466.727z M542.84,711.649
			c0.178-0.223,0.44-0.406,0.649-0.6c0.046,0.293,0.091,0.587,0.137,0.88C543.374,711.84,543.072,711.779,542.84,711.649z
			 M521.111,774.191c0.643-0.901,3.891,0.8,3.307,1.992C523.859,777.294,520.294,775.336,521.111,774.191z M516.255,1028.566
			c-1.425-0.385-1.959-1.296-1.532-2.67c0.245-0.791,0.701-1.661,1.665-1.536C518.451,1024.625,519.328,1029.395,516.255,1028.566z
			 M528.802,889.875l-2.551,0.595L528.802,889.875z M526.655,900.779c0.08-1.322,2.71-1.594,2.484-0.073
			C528.945,902.017,526.564,902.295,526.655,900.779z M573.375,816.515c0.116-0.134,0.432,0.615-0.118,0.883
			C572.694,817.672,573.297,816.605,573.375,816.515z M556.599,771.008c0.095,0.11,0.19,0.221,0.286,0.331
			c-0.141,0.024-0.28,0.048-0.421,0.072C556.51,771.277,556.554,771.143,556.599,771.008z M550.791,808.107
			c0.061,0.092,0.123,0.185,0.186,0.277c-0.101,0.013-0.201,0.026-0.301,0.038C550.714,808.317,550.753,808.212,550.791,808.107z
			 M544.814,736.207c0.204-0.512-0.015-0.954-0.173-1.429C544.802,735.258,545.022,735.685,544.814,736.207z M545.776,641.019
			c-0.459-0.242-0.888-0.219-0.857-0.859c0.018-0.387,0.37-0.691,0.742-0.725C546.727,639.335,546.746,640.751,545.776,641.019z
			 M551.737,607.951c0.779,0.289,1.529,0.685,2.181,1.08c0.154,0.036,0.305,0.113,0.463,0.103c-0.105-0.006-0.211-0.012-0.316-0.017
			c-0.044-0.026-0.102-0.059-0.147-0.086C553.195,608.861,552.49,608.33,551.737,607.951c-0.405-0.15-0.808-0.346-1.213-0.332
			C550.952,607.604,551.35,607.755,551.737,607.951z M561.056,559.057c0.455,0.339,0.161,0.772-0.245,0.637
			c-0.33-0.11-0.493-0.799-0.613-1.06C560.499,558.746,560.785,558.888,561.056,559.057z M586.353,425.021
			c-1.289,0.471-1.484-1.509-0.224-1.764C587.525,422.975,587.489,424.604,586.353,425.021z"></path>
		<path d="M671.543,562.737c-1.751,6.004-3.243,12.041-5.33,17.945c-2.055,5.817-3.544,11.662-5.162,17.604
			c-2.576,9.456-6.737,18.719-10.943,27.53c-4.663,9.767-10.208,18.685-16.642,27.37c-3.368,4.548-7.137,8.782-10.568,13.279
			c-3.621,4.748-7.54,9.174-11.869,13.292c-2.078,1.975-4.095,4.066-6.355,5.833c-1.168,0.913-3.178,1.96-3.84,3.159
			c-0.63,1.142-1.151,2.395-2.602,2.918c-0.893,0.321-1.372-0.006-2.18,0.508c-0.671,0.427-1.279,1.073-1.865,1.607
			c-1.078,0.984-2.111,2.015-3.192,2.997c-2.208,2.008-4.369,4.071-6.924,5.641c1.021-0.06,2.352,0.524,2.67,1.472
			c0.353,1.05,0.081,2.923-0.313,3.914c5.272-3.268,9.105-8.071,13.884-11.927c2.402-1.938,4.88-3.784,7.283-5.722
			c2.406-1.94,4.545-4.18,6.738-6.353c4.686-4.647,8.948-9.591,12.78-14.963c3.654-5.12,7.767-9.886,11.334-15.08
			c5.799-8.444,11.023-17.155,15.079-26.581c3.554-8.258,6.926-16.64,9.688-25.2c1.107-3.434,1.818-6.965,2.754-10.445
			c0.985-3.667,2.38-7.21,3.691-10.767c1.256-3.406,2.37-6.848,3.393-10.33c0.423-1.439,1.35-3.285,1.406-4.773
			c0.007-0.158,0.296-0.619,0.232-0.755c-0.034-0.072-1.033-0.447-1.195-0.541C672.763,563.942,672.123,563.353,671.543,562.737z"></path>
		<path d="M477.258,815.464c0.806,0.258,1.204,1.701,2.31,1.486c-4.988-3.908-9.797-8.159-14.516-12.387
			c-4.719-4.227-8.63-9.535-12.033-14.854c-1.062,1.31-1.202,0.932-2.429,0.202c-0.543-0.323-0.88-0.57-1.551-0.461
			c-1.047,0.172-0.779,0.3-0.609,0.992c0.309,1.252,1.568,2.64,2.251,3.701c0.812,1.261,1.647,2.507,2.511,3.733
			c3.561,5.051,7.575,9.436,12.23,13.491c2.13,1.893,4.182,3.868,6.3,5.773c1.127,1.012,2.273,2.005,3.43,2.982
			c0.695,0.588,1.403,1.162,2.108,1.74c0.788,0.646,0.815,0.902,1.681,0.308c0.237-0.18,0.442-0.392,0.616-0.635
			c-0.02-0.481-0.268-0.678-0.743-0.592c-0.541-0.525-0.359-0.331-0.606-0.923c-0.346-0.831-0.751-1.551-1.191-2.367
			C476.669,817.008,475.705,814.97,477.258,815.464z"></path>
		<path d="M429.407,742.557c-1.359-2.704-2.842-5.362-3.896-8.206c-2.017-5.441-3.279-11.19-4.891-16.76
			c-1.87-6.46-3.134-13.026-3.841-19.716c-1.438,0.678-2.111,1.667-3.859,1.596c0.961,6.678,2.46,13.195,4.518,19.617
			c1.979,6.173,3.356,12.677,6.042,18.594c1.886,4.155,4.068,8.151,5.87,12.349c2.541,5.921,5.226,11.778,7.994,17.596
			c3.327,6.993,6.504,14.126,10.113,20.977c1.618-1.171,1.704-2.896,2.381-4.597c-5.691-11.183-11.666-22.227-16.872-33.651
			C431.781,747.755,430.691,745.113,429.407,742.557z"></path>
		<path d="M534.995,171.827c0.203-0.696,0.373-0.546,0.216-1.252c-0.233-1.044-0.869-2.086-1.2-3.113
			c-0.358-1.111-0.65-2.241-1.022-3.347c-1.465-4.366-3.588-8.474-5.029-12.842c-1.198-3.635-3.087-7.02-4.453-10.612
			c-1.803-4.741-3.565-9.493-5.299-14.259c-1.028-2.673-1.883-5.407-3.194-7.96c-1.26-2.452-2.36-5.055-3.287-7.653
			c-0.864-2.422-1.517-4.674-2.854-6.902c-1.185-1.977-1.667-4.098-2.576-6.191c-1.024-2.362-2.226-4.708-3.646-6.857
			c-0.368-0.557-1.849-3.219-2.24-1.714c-0.175,0.676,0.396,1.887,0.598,2.51c0.405,1.253,0.881,2.488,1.337,3.722
			c0.878,2.372,1.647,4.815,2.573,7.164c0.92,2.334,2.577,4.235,3.413,6.619c1.04,2.968,2.211,5.891,3.617,8.71
			c0.379-0.829,2.044-1.012,2.509-0.227c0.657,1.111-0.956,1.706-1.833,1.521c2.793,5.007,4.558,10.657,6.758,15.945
			c0.542,1.303,1.107,2.597,1.651,3.9c0.559,1.335,0.988,3.09,1.769,4.307c0.471,0.734,0.05,0.326,0.817,0.847
			c0.429,0.291,0.802,0.297,1.039,0.806c0.286,0.612,0.022,0.611-0.044,1.139c-0.537,0.199-0.602,0.494-0.196,0.881
			c0.134,0.256,0.268,0.511,0.403,0.766c1.177,2.28,1.717,4.747,2.617,7.135c0.888,2.357,1.833,4.677,2.648,7.062
			c1.677,4.901,2.923,9.957,5.292,14.602c0.024-1.075-0.487-2.033-0.614-3.075C534.686,172.815,534.817,172.439,534.995,171.827z"></path>
		<path d="M526.801,165.273c-0.828-2.176-2.162-4.145-2.941-6.328c-0.596-1.675-1.503-3.073-2.189-4.686
			c-0.357-0.839-0.638-1.724-0.941-2.583c-0.187-0.529-0.799-3.493-1.282-3.777c-0.092-0.055-0.733,0.082-0.987,0.042
			c-1.044-0.164-0.964-0.414-1.072-1.518c-0.091-0.932-0.338-2.449,0.799-2.876c-0.53-1.862-1.242-3.509-1.914-5.304
			c-0.69-1.839-0.746-3.799-1.336-5.628c-0.267-0.829-0.834-1.469-1.159-2.261c-0.359-0.879-0.314-1.821-0.534-2.733
			c-0.367-1.528-1.107-3.88-2.299-4.953c-1.569-1.414-1.214,1.196-1.071,2.219c0.249,1.767,0.561,3.57,0.878,5.324
			c0.311,1.727,1.553,2.978,1.873,4.726c0.293,1.6,0.823,3.246,1.527,4.718c1.836,3.838,3.037,7.926,4.686,11.866
			c0.783,1.871,1.547,3.621,2.538,5.38c0.492,0.872,0.673,1.799,0.976,2.741c0.375,1.167,0.953,2.232,1.408,3.366
			c0.679,1.689,1.11,3.441,1.721,5.144c0.457,1.28,1.599,4.129,2.761,4.863c1.555,0.983,1.053-1.392,0.824-2.154
			C528.501,168.982,527.503,167.122,526.801,165.273z"></path>
		<path d="M534.352,151.398c-0.353-1.385-0.942-2.724-1.54-4.018c-0.617-1.332-0.806-2.852-1.547-4.11
			c-0.568-0.963-0.912-1.738-1.254-2.804c-0.535-1.662-1.063-3.329-1.541-5.008c-0.492-1.726-0.694-3.63-1.42-5.278
			c-0.814-1.853-1.374-3.494-1.774-5.477c-0.208-1.033-0.672-1.529-1.136-2.449c-0.373-0.74-0.35-1.417-0.547-2.211
			c-0.282-1.137-1.209-3.781-2.417-4.273c-0.672-0.274-0.896-0.283-1.012,0.602c-0.052,0.397,0.63,1.425,0.101,1.409
			c0.269,1.345,0.595,2.678,0.78,4.034c0.222,1.624,1.427,2.589,1.745,4.165c0.334,1.651,0.911,3.203,1.764,4.656
			c0.839,1.431,1.219,3.075,1.723,4.648c0.514,1.607,1.195,3.165,1.809,4.735c0.593,1.513,1.366,2.862,2.004,4.325
			c0.561,1.288,0.783,2.82,1.269,4.159c0.551,1.516,0.809,3.057,1.173,4.616c0.262,1.119,0.994,3.076,1.774,3.972
			c1.332,1.531,1.581-0.551,1.35-1.639C535.362,154.069,534.704,152.78,534.352,151.398z"></path>
		<path d="M631.888,140.396c-1.439,1.134-2.634,2.433-3.921,3.728c-1.511,1.52-3.217,2.822-4.723,4.352
			c-2.915,2.962-5.526,6.187-8.47,9.116c-2.607,2.594-4.7,5.814-7.15,8.592c-3.333,3.781-6.663,7.596-9.863,11.489
			c0.491-0.076,0.83,0.133,1.125-0.291c-0.089,0.136-0.045,0.31-0.218,0.287c0.116,0.932,0.025,2.085-0.802,2.696
			c-0.912,0.676-1.542,0.152-1.529-0.975c-0.874,1.05-1.755,2.098-2.497,3.246c-0.247,0.383-1.022,1.246-1.044,1.688
			c-0.019,0.376,0.415,0.79,0.393,1.241c-0.039,0.783-0.675,1.263-1.097,1.851c-0.727,1.016-0.648,1.86-0.487,3.106
			c2.331-3.372,4.353-6.924,6.859-10.167c2.776-3.594,5.644-7.117,8.465-10.677c1.34-1.692,2.724-3.353,4.121-4.999
			c1.383-1.629,2.505-3.486,3.951-5.052c2.687-2.91,5.552-5.79,8.409-8.541c1.508-1.451,3.087-2.786,4.68-4.14
			c1.685-1.432,3.109-3.139,4.677-4.692c0.397-0.393,2.938-2.562,2.518-3.377C634.754,137.845,632.286,140.082,631.888,140.396z"></path>
		<path d="M588.13,190.703c-1.393,1.595-2.604,3.16-3.528,5.075c-0.883,1.833-2.028,3.226-3.215,4.86
			c-0.708,0.975-6.062,9.642-4.698,10.431c1.227,0.71,6.194-7.668,6.982-8.695c1.233-1.609,2.405-2.994,3.266-4.853
			c1.067-2.304,2.5-4.009,3.998-6.035c-1.114-0.029-2.228-0.058-3.343-0.087C587.852,191.227,588.031,190.995,588.13,190.703z"></path>
		<path d="M585.037,210.177c0.336-2.28,2.742-3.076,2.237-5.689c-1.137,1.591-2.305,3.252-3.157,5.018
			C583.487,210.809,583.65,211.371,585.037,210.177z"></path>
		<path d="M628.512,159.482c-3.652,3.607-7.376,7.15-10.991,10.794c-3.319,3.346-6.321,6.879-9.51,10.335
			c-1.525,1.653-2.991,3.374-4.579,4.967c-1.653,1.659-3.417,3.19-4.86,5.045c-1.229,1.579-2.236,3.309-3.586,4.793
			c-1.494,1.641-3.094,3.137-4.484,4.877c-0.479,0.606-0.958,1.213-1.433,1.824c0.877,0.368,0.594,2.06,1.005,2.793
			c2.987-3.274,6.464-6.378,8.979-10.025c2.727-3.955,6.121-7.188,9.278-10.794c3.541-4.046,6.876-8.19,10.583-12.093
			c3.721-3.919,7.53-7.759,11.27-11.662C629.586,160.394,628.683,160.142,628.512,159.482z"></path>
		<path d="M665.939,124.407c-2.12,1.64-3.956,3.59-6.025,5.288c1.026-0.382,0.496,0.305,0.322,1.003
			c-0.15,0.596-0.303,1.19-0.412,1.795c0.799-0.615,1.605-1.225,2.365-1.89c2.075-1.797,4.064-3.716,6.085-5.575
			c0.338-0.311,3.667-3.084,2.68-3.69C670.021,120.762,666.518,123.959,665.939,124.407z"></path>
		<path d="M647.786,140.565c-2.256,2.259-4.749,4.252-7.013,6.494c-1.708,1.693-3.173,3.603-4.9,5.279
			c-1.859,1.805-3.725,3.602-5.585,5.406c0.734-0.12,1.438,0.523,1.962,0.466c0.387-0.042,1.322-1.335,1.574-1.589
			c1.291-1.298,2.602-2.579,3.89-3.88c2.359-2.384,4.43-4.855,7.004-7.029c2.789-2.356,5.352-4.957,8.086-7.374
			c1.356-1.199,2.722-2.393,4.112-3.553c0.796-0.663,0.744-0.655,0.931-1.548c0.167-0.796,0.053-1.52,0.478-2.269
			c-1.128,0.903-2.254,1.81-3.317,2.789C652.566,135.991,650.128,138.221,647.786,140.565z"></path>
		<path d="M661.946,146.254c-1.137-0.07-3.052,1.958-3.849,2.624c-1.197,1.001-2.203,2.205-3.362,3.246
			c-1.191,1.07-2.495,2.004-3.674,3.089c-2.268,2.087-4.369,4.32-6.572,6.468c-1.203,1.172-2.563,2.163-3.778,3.32
			c-1.151,1.095-2.05,2.411-3.179,3.526c-1.723,1.703-3.584,3.277-5.378,4.904c-5.022,4.552-10.446,8.749-15.075,13.696
			c-2.176,2.324-4.66,4.314-7.142,6.286c-2.111,1.678-3.462,4.021-5.591,5.677c-2.323,1.806-4.438,3.897-6.28,6.198
			c-0.437,0.545-3.548,4.571-0.93,3.238c2.613-1.33,4.841-3.802,7.063-5.671c0.953-0.802,2.013-1.473,2.949-2.297
			c1.215-1.069,2.038-2.428,3.092-3.636c0.949-1.086,2.134-1.896,3.235-2.815c1.333-1.113,2.534-2.392,3.773-3.605
			c2.264-2.217,4.279-4.613,6.601-6.786c4.925-4.609,9.873-9.202,14.662-13.955c1.27-1.26,2.286-2.74,3.637-3.921
			c1.452-1.271,2.991-2.41,4.379-3.756c2.511-2.433,5.098-4.804,7.873-6.933c2.638-2.025,5.47-4.577,7.489-7.24
			C662.365,147.285,663.086,146.324,661.946,146.254z"></path>
		<path d="M483.378,297.065c-0.771-1.368-1.349-2.831-2.061-4.229c-0.766-1.506-1.828-2.822-2.623-4.309
			c-1.242-2.322-2.258-4.795-3.308-7.207c-2.657-6.106-4.685-12.444-7.355-18.533c-1.268-2.891-2.015-5.927-2.778-8.971
			c-0.666-2.658-2.162-4.914-2.709-7.626c-0.598-2.973-1.598-5.945-2.855-8.705c-0.538-1.182-2.148-4.138-2.002-1.077
			c0.145,3.042,1.173,6.007,1.774,8.969c0.243,1.197,0.38,2.415,0.746,3.584c0.482,1.542,1.399,2.871,1.991,4.362
			c0.512,1.288,0.693,2.675,1.087,3.998c0.529,1.777,1.259,3.547,1.955,5.265c1.188,2.931,2.636,5.744,3.815,8.692
			c2.459,6.142,5.123,12.312,8.327,18.111c0.816,1.479,1.862,2.798,2.595,4.328c0.886,1.849,1.635,3.733,2.665,5.514
			c1.7,2.941,3.333,5.935,4.782,9.008c1.417,3.006,3.422,6.323,5.688,8.775c0.498,0.539,1.406,1.504,1.617,0.343
			c0.215-1.186-1.345-3.288-1.891-4.246C489.722,307.752,486.425,302.474,483.378,297.065z"></path>
		<path d="M490.322,284.501c-0.811-1.6-2.026-2.902-2.822-4.524c-1.315-2.683-2.648-5.395-3.709-8.19
			c-0.948-2.499-1.945-4.824-3.14-7.21c-0.992-1.98-1.328-4.082-2.05-6.132c-0.341-0.969-1.037-1.713-1.484-2.619
			c-0.521-1.057-0.568-2.268-0.965-3.371c-0.583-1.617-1.557-4.334-3.098-5.279c-0.035,0.702-0.494,1.133-0.613,1.735
			c-0.095,0.485,0.259,1.336,0.367,1.808c0.253,1.094,0.616,2.156,0.877,3.245c0.313,1.306,0.414,2.449,1.134,3.608
			c0.689,1.11,1.25,1.942,1.596,3.217c0.708,2.606,2.096,4.681,3.345,7.022c1.477,2.772,2.519,5.776,3.977,8.569
			c1.455,2.785,3.081,5.334,4.716,7.984c0.695,1.126,1.04,2.438,1.687,3.595c0.655,1.175,1.376,2.302,2.008,3.492
			c1.376,2.591,2.499,5.05,4.236,7.429c0.317,0.434,1.414,2.271,2.231,1.788c0.914-0.54-0.471-2.764-0.776-3.332
			C495.473,292.992,492.563,288.92,490.322,284.501z"></path>
		<path d="M493.08,255.83C493.152,255.888,493.172,255.749,493.08,255.83L493.08,255.83z"></path>
		<path d="M492.888,255.305c-0.209-0.954-1.028-2.018-1.516-2.866c-1.232-2.14-2.493-4.26-3.793-6.359
			c-2.326-3.758-4.906-7.26-7.186-11.034c-1.231-2.036-2.714-3.943-4.035-5.926c-1.294-1.945-2.359-4.081-3.792-5.925
			c-0.559-0.718-1.196-1.374-1.68-2.147c-0.485-0.774-0.591-1.7-1.026-2.457c-0.46-0.799-0.933-0.887-1.367,0.057
			c-0.434,0.944,0.017,2.271,0.423,3.149c0.395,0.848,0.999,1.564,1.579,2.287c0.553,0.69,1.227,0.57,1.602,1.373
			c0.18,0.384,0.082,0.836,0.227,1.215c0.15,0.393,0.537,0.869,0.758,1.205c0.547,0.835,1.145,1.634,1.732,2.441
			c1.061,1.458,2.148,2.887,3.237,4.322c1.145,1.508,1.946,3.21,3.015,4.763c1.547,2.244,3.126,4.216,4.5,6.589
			c2.171,3.751,4.105,7.59,5.982,11.491c0.332-0.286,1.108-0.839,1.301-1.267c0.111-0.248,0.182-0.345,0.23-0.386
			C493.033,255.792,492.97,255.68,492.888,255.305z"></path>
		<path d="M504.657,279.585c-0.353-1.126-0.566-2.303-1.001-3.403c-0.469-1.191-1.247-2.173-1.907-3.257
			c-1.207-1.98-1.739-4.355-2.771-6.444c-0.603-1.222-1.187-2.454-1.915-3.607c-0.173-0.274-0.766-1.547-1.106-1.663
			c-0.564-0.194-1.779,0.627-2.248,0.873c0.59,1.082,1.336,2.073,1.861,3.191c1.069,2.321,1.959,4.595,2.805,6.998
			c0.852,2.424,2.409,4.352,3.157,6.845c0.749,2.495,1.909,5.007,3.262,7.233c0.675,1.112,2.318,3.358,1.983,0.595
			C506.47,284.426,505.411,281.989,504.657,279.585z"></path>
		<path d="M644.944,336.965c-2.177,0.975-4.077,2.322-6.164,3.452c0.585,0.493,0.848,1.211,0.884,1.958
			c2.576-1.318,5.435-2.985,7.719-4.763c0.483-0.376,1.517-1.06,0.825-1.612C647.63,335.538,645.439,336.743,644.944,336.965z"></path>
		<path d="M606.25,361.548c-2.557,1.768-5.144,3.486-7.699,5.259c-2.419,1.679-4.513,3.646-6.819,5.456
			c-2.279,1.788-4.599,3.45-6.949,5.136c-2.062,1.479-3.47,3.605-5.483,5.125c-2.219,1.676-4.27,3.35-6.222,5.35
			c-0.846,0.869-1.64,1.788-2.383,2.747c-0.292,0.377-1.546,1.708-1.387,2.248c0.31,1.052,3.365-1.566,3.826-1.927
			c2.298-1.8,4.505-3.734,6.909-5.392c2.07-1.426,3.429-3.309,5.241-4.999c2.084-1.943,4.617-3.476,6.814-5.307
			c2.002-1.669,3.814-3.589,5.877-5.171c2.412-1.848,4.897-3.585,7.347-5.379c2.956-2.165,5.866-4.392,8.865-6.497
			c2.719-1.908,5.291-4.128,8.059-5.939c2.523-1.651,5.23-3.085,7.795-4.686c1.334-0.833,2.706-1.611,4.079-2.376
			c0.44-0.245,1.538-0.598,1.826-0.998c0.305-0.424,0.038-1.748,0.272-2.481c-0.715,0.368-1.425,0.749-2.109,1.173
			C624.574,348.735,615.455,355.185,606.25,361.548z"></path>
		<path d="M638.702,352.19c-3.149,2.736-6.67,4.976-9.79,7.781c0.105-0.018,0.211-0.035,0.317-0.053
			c-0.096,0.284-0.192,0.568-0.287,0.853c-0.09-0.182-0.31-0.299-0.41-0.476c-1.564,1.356-3.379,2.315-4.829,3.81
			c-0.933,0.963-1.891,1.78-2.96,2.582c-3.729,2.795-7.526,5.471-11.356,8.122c-3.603,2.493-6.756,5.652-10.589,7.802
			c-1.823,1.023-2.922,2.374-4.506,3.661c-1.604,1.303-3.48,2.185-5.084,3.538c-1.034,0.874-3.362,2.461-3.604,3.877
			c-0.28,1.63,2.241-0.057,2.912-0.447c1.685-0.979,3.263-2.142,4.951-3.11c0.716-0.411,1.477-0.744,2.15-1.228
			c1.019-0.731,1.701-1.741,2.605-2.589c1.282-1.203,2.955-1.916,4.339-3.001c1.875-1.468,3.519-3.167,5.365-4.645
			c3.805-3.045,7.777-5.87,11.576-8.931c1.724-1.389,3.511-2.695,5.063-4.276c1.789-1.823,4.07-3.022,6.038-4.643
			c3.826-3.151,8.042-5.616,11.727-8.948c0.518-0.467,2.697-2.553,0.805-2.489C641.687,349.428,639.735,351.291,638.702,352.19z"></path>
		<path d="M639.442,366.496c-5.442,4.714-11.257,8.967-16.673,13.702c-5.148,4.501-11.271,7.646-16.649,11.831
			c1.003,0.432,1.908,0.779,2.118,1.979c5.293-4.315,11.358-7.543,16.411-12.196c5.372-4.946,11.306-9.244,16.564-14.327
			C640.461,367.511,639.796,367.162,639.442,366.496z"></path>
		<path d="M678.434,321.176c-1.94,2.426-3.576,5.052-5.396,7.563c-2.023,2.79-4.321,5.397-6.436,8.118
			c-1.933,2.488-3.834,5.04-5.851,7.458c-2.12,2.541-4.561,4.791-6.62,7.385c-1.304,1.642-2.595,3.241-4.08,4.721
			c-1.221,1.218-2.449,2.43-3.681,3.637c-0.52,0.509-1.811,1.339-2.089,1.992c-0.295,0.695-0.013,1.925-0.281,2.739
			c5.806-5.62,10.899-11.789,16.454-17.627c2.596-2.728,4.901-5.76,7.309-8.655c1.366-1.643,2.667-3.334,4.084-4.936
			c0.556-0.629,3.623-3.686,2.978-4.263c0.794-0.619,1.331-1.268,1.88-2.102c1.519-2.318,3.903-4.965,4.639-7.668
			C682.07,316.872,678.823,320.689,678.434,321.176z"></path>
		<path d="M599.812,395.788c-3.005,1.698-5.951,3.674-8.745,5.695c-0.806,0.582-2.457,1.436-2.887,2.382
			c-0.318,0.697-0.153,0.593,0.573,0.53c1.266-0.11,2.707-1.019,3.823-1.552c1.654-0.788,3.294-1.607,4.902-2.487
			c2.878-1.577,5.949-2.978,8.679-4.794c-1.206-0.144-1.943-0.973-2.997-1.27C602.316,394.055,600.66,395.329,599.812,395.788z"></path>
		<path d="M502.981,524.117c-2.593-4.138-5.163-8.256-7.693-12.438c-1.183-1.956-2.5-3.839-3.647-5.815
			c-0.652-1.122-1.208-2.296-1.793-3.454c-0.104-0.204-0.207-0.407-0.31-0.61c-0.066-0.633-0.281-0.788-0.646-0.467
			c-0.298-0.045-0.924,0.268-1.223,0.327c1.729,3.31,3.487,6.544,5.314,9.801c1.801,3.214,3.425,6.611,5.394,9.721
			c0.947,1.495,2.034,2.903,3.057,4.346c0.806,1.137,1.744,2.995,3.003,3.69c0.944,0.522,1.042,0.052,0.78-0.881
			C504.799,526.849,503.78,525.42,502.981,524.117z"></path>
		<path d="M476.566,474.608c-1.12-2.917-2.533-5.706-3.652-8.612c-1.26-3.237-2.107-6.508-3.119-9.812
			c-0.458-1.494-1.192-2.85-1.824-4.272c-0.653-1.469-0.979-2.979-1.343-4.538c-0.774-3.328-1.976-6.685-3.409-9.785
			c-0.188-0.409-0.924-2.456-1.547-2.475c-0.681-0.02-0.262,2.056-0.214,2.401c0.516,3.718,1.677,7.309,2.444,10.973
			c0.681,3.248,2.463,5.904,3.399,9.035c2.066,6.915,5.227,13.233,8.002,19.881c1.695,4.058,3.541,8.029,5.518,11.958
			c1.054,2.095,2.144,4.172,3.22,6.256c0.37,0.719,0.739,1.433,1.16,2.123c0.799,1.311,0.859,1.055,2.201,0.511
			c-3.074-4.529-5.176-9.892-7.341-14.89C478.81,480.475,477.695,477.544,476.566,474.608z"></path>
		<path d="M511.31,519.862c-1.521-2.339-2.698-4.938-4.111-7.351c-1.384-2.362-2.819-4.602-4.006-7.076
			c-0.895-1.865-2.232-3.434-3.147-5.283c-2.586-5.228-4.777-10.605-6.823-16.062c-1.048-2.796-2.419-5.425-3.444-8.222
			c-0.942-2.573-1.332-5.435-2.576-7.866c-1.24-2.424-1.62-4.904-2.554-7.438c-0.45-1.222-0.903-2.449-1.46-3.628
			c-0.246-0.52-1.056-2.724-1.798-2.872c-1.252-0.25-0.103,4.025,0.039,4.69c0.541,2.522,1.004,5.302,1.851,7.733
			c0.417,1.198,1.152,2.211,1.703,3.341c0.563,1.154,0.749,2.405,1.119,3.625c0.819,2.703,2.078,5.268,3.408,7.745
			c1.569,2.922,2.539,6.169,3.933,9.178c1.457,3.145,3.03,6.231,4.604,9.318c1.3,2.55,2.989,4.809,4.139,7.436
			c1.364,3.119,3.218,6.044,4.831,9.043c1.322,2.386,2.387,4.712,3.947,6.973c0.402,0.581,2.91,4.835,3.669,3.339
			c0.342-0.674-0.685-2.252-0.972-2.818C512.978,522.323,512.128,521.121,511.31,519.862z"></path>
		<path d="M510.699,489.517c-1.043-2.962-2.513-5.754-3.588-8.71c-1.442-3.969-2.871-7.942-4.322-11.909
			c-2.889-7.903-5.397-16.034-8.996-23.647c-1.652-3.495-3.164-7.173-4.413-10.832c-1.236-3.618-2.851-6.799-4.538-10.205
			c-1.674-3.379-2.75-7.029-4.404-10.438c-0.794-1.636-1.612-3.256-2.529-4.826c-0.628-1.075-1.614-3.5-2.77-4.172
			c-0.725-0.422-0.647-0.092-0.53,0.708c0.251,1.711,1.09,3.447,1.716,5.038c1.311,3.331,2.775,6.617,3.955,9.996
			c1.227,3.514,3.085,6.506,4.658,9.852c1.702,3.619,2.915,7.512,4.505,11.193c1.66,3.844,3.595,7.541,5.141,11.434
			c1.625,4.092,3.15,8.223,4.787,12.311c1.812,4.525,3.591,9.064,5.33,13.617c1.717,4.497,3.859,8.867,5.235,13.479
			c1.223,4.104,2.763,8.092,4.086,12.163c1.403,4.316,2.396,8.768,3.855,13.058c0.042-0.864,2.383,0.698,2.62,0.899
			c-0.704-1.946-1.292-3.908-1.852-5.9C516.446,504.807,513.393,497.173,510.699,489.517z"></path>
		<path d="M521.48,521.361c-0.441-1.395-1.265-0.746-2.551-0.828c0.29,0.774,0.581,1.548,0.835,2.333
			c0.604,1.838,1.166,3.76,2.057,5.483c0.312,0.603,0.852,1.754,1.301,0.774c0.492-1.076-0.53-3.664-0.789-4.684
			C522.072,523.408,521.801,522.377,521.48,521.361z"></path>
		<path d="M648.469,552.407c-1.282,0.107-3.189,2.102-4.104,2.831c-1.799,1.431-3.54,2.904-5.177,4.518
			c-1.691,1.666-3.379,3.319-5.16,4.891c-0.859,0.759-1.706,1.532-2.543,2.315c-0.736,0.688-0.685,0.53-0.759,1.385
			c-0.057,0.648,0.233,1.326,0.15,2.019c1.065-1.022,2.169-2.002,3.272-2.983c3.359-3.031,6.549-6.22,9.884-9.274
			c1.51-1.383,3.135-2.769,4.402-4.388C648.934,553.084,649.569,552.315,648.469,552.407z"></path>
		<path d="M626.259,572.12c-0.486,0.5-0.959,1.013-1.435,1.522C625.644,573.468,626.157,572.976,626.259,572.12z"></path>
		<path d="M626.117,595.206c-1.243,1.269-2.215,2.722-3.334,4.092c-1.772,2.196-3.743,4.204-5.476,6.445
			c-1.837,2.375-3.561,4.778-5.491,7.081c-1.413,1.686-2.357,3.684-3.715,5.414c-2.002,2.551-4.025,5.088-6.033,7.636
			c-1.89,2.399-3.836,4.749-5.753,7.127c-1.942,2.41-3.483,5.042-5.314,7.529c-1.729,2.348-3.996,4.448-5.377,7.014
			c-0.577,1.072-1.032,2.162-1.78,3.134c-0.855,1.11-1.827,2.082-2.596,3.261c-1.34,2.053-3.42,4.782-3.768,7.284
			c-0.342,2.46,2.674-1.385,3.073-1.88c1.829-2.266,3.702-4.511,5.504-6.793c0.879-1.114,1.402-2.368,2.033-3.624
			c0.673-1.343,1.635-2.392,2.586-3.539c1.982-2.391,3.615-5.097,5.166-7.776c1.588-2.742,3.77-5.173,5.672-7.7
			c2.022-2.686,3.934-5.456,5.939-8.154c1.744-2.348,3.232-4.92,5.01-7.221c2.019-2.614,4.254-5.169,6.39-7.699
			c2.216-2.625,4.797-4.975,6.809-7.756c0.476-0.658,4.766-5.791,3.21-6.023C628.013,592.931,626.61,594.702,626.117,595.206z"></path>
		<path d="M623.724,625.808c-0.87,1.117-1.74,2.235-2.612,3.351c-1.86,2.381-3.786,4.715-5.619,7.117
			c-3.23,4.234-6.522,8.31-10.029,12.321c-3.532,4.04-7.575,7.589-11.054,11.669c-3.185,3.735-6.414,7.232-10.046,10.542
			c-4.474,4.077-8.862,8.287-13.112,12.598c-1.354,1.351-2.707,2.712-3.977,4.143c-0.195,0.219-1.723,1.691-1.556,2.073
			c0.293,0.672,4.151-2.481,4.528-2.777c3.235-2.525,6.369-5.175,9.414-7.925c1.667-1.506,3.547-2.942,5.086-4.574
			c0.826-0.876,0.868-2.654,1.573-3.532c0.24,0.144,0.795,0.446,1.117,0.483c0.871,0.1,1.089-0.319,1.74-0.946
			c1.417-1.36,2.759-2.792,4.048-4.275c2.672-3.072,5.201-6.168,8.087-9.049c2.942-2.935,5.595-6.086,8.287-9.25
			c1.111-1.305,2.844-2.503,2.605-4.253c-0.083-0.616-0.241-1.199,0.257-1.676c0.435-0.415,1.569-0.616,1.96-0.029
			c4.091-5.547,8.289-11.011,12.445-16.511c-0.549-0.134-1.174-0.387-1.737-0.422C624.3,624.837,624.264,625.115,623.724,625.808z"></path>
		<path d="M590.043,683.403c-3.948,3.415-8.284,6.286-12.248,9.671c-0.924,0.79-1.906,1.507-2.822,2.306
			c-0.507,0.444-1.722,1.272-1.848,1.972c-0.318,1.772,2.987-0.545,3.464-0.851c2.503-1.61,4.62-3.673,7.029-5.409
			c2.735-1.97,5.307-4.142,7.772-6.442C590.49,684.955,590.105,684.15,590.043,683.403z"></path>
		<path d="M642.238,623.623c-1.805,1.651-3.224,3.87-4.714,5.803c-1.628,2.114-3.581,4.079-5.065,6.287
			c-1.487,2.212-2.528,4.445-4.332,6.447c-3.596,3.99-6.388,8.601-9.929,12.615c-4.146,4.699-8.382,9.376-12.761,13.859
			c-2.251,2.305-4.495,4.577-6.626,6.992c-2.192,2.484-5.072,4.44-7.522,6.674c0.921,0.475,1.044,0.907,0.546,1.935
			c0.144-0.135,0.288-0.271,0.433-0.406c2.026-1.962,4.2-3.722,6.258-5.64c1.576-1.468,2.832-3.233,4.378-4.734
			c3.782-3.669,7.526-7.37,11.18-11.165c1.966-2.042,3.981-4.031,5.924-6.097c1.901-2.022,3.424-4.286,5.195-6.409
			c1.544-1.853,3.019-3.754,4.679-5.506c1.879-1.983,3.137-4.047,4.575-6.34c1.25-1.993,3.014-3.594,4.312-5.565
			c1.491-2.264,2.922-4.549,3.996-7.046C643.213,624.278,644.014,621.997,642.238,623.623z"></path>
		<path d="M681.745,521.073c0.353,0.227,0.685,0.482,0.994,0.766c0.076-0.25,0.239-0.855-0.067-1.066
			C682.382,520.573,681.936,520.914,681.745,521.073z"></path>
		<path d="M473.23,762.898c-1.35-1.663-2.837-3.217-4.137-4.92c-1.325-1.735-2.424-3.641-3.806-5.334
			c-4.295-5.31-7.935-10.921-11.362-16.854c-1.942-3.362-3.681-6.837-5.475-10.28c-1.6-3.07-3.433-5.959-4.951-9.082
			c-1.588-3.263-2.651-6.63-4.488-9.78c-1.638-2.807-2.366-6.029-3.701-8.987c-0.753-1.67-1.498-3.347-2.373-4.958
			c-0.292-0.537-1.265-2.89-2.007-2.967c-1.117-0.116,0.859,5.805,1.065,6.455c0.989,3.138,1.956,6.503,3.273,9.513
			c0.751,1.714,1.894,3.183,2.769,4.826c0.816,1.531,1.26,3.222,1.976,4.797c1.464,3.221,3.251,6.271,5.168,9.234
			c2.125,3.285,3.809,6.866,5.797,10.237c2.106,3.572,4.41,7.039,6.764,10.453c1.078,1.563,2.12,3.157,3.242,4.689
			c1.131,1.544,2.509,2.882,3.634,4.431c2.337,3.218,4.64,6.406,7.052,9.573c2.339,3.073,4.55,6.39,7.134,9.256
			c1.311,1.455,2.711,2.843,4.086,4.237c0.509,0.514,2.674,3.139,3.584,2.745c1.327-0.576-4.492-6.769-5.11-7.422
			C478.449,769.676,475.905,766.193,473.23,762.898z"></path>
		<path d="M508.501,821.054c-2.801-2.849-5.635-5.613-8.392-8.507c-5.304-5.568-10.55-11.138-15.699-16.838
			c-4.656-5.153-8.758-11.193-12.458-17.054c-2.264-3.586-4.395-7.251-6.889-10.684c-2.161-2.974-4.049-6.307-5.547-9.66
			c-1.569-3.511-4.049-6.409-5.55-9.954c-1.386-3.274-3.09-6.468-4.977-9.48c-0.324-0.518-1.675-3.229-2.478-3.254
			c-0.769-0.024-0.183,1.466-0.061,1.903c0.932,3.344,2.527,6.476,3.905,9.645c0.588,1.352,1.052,2.752,1.691,4.083
			c0.886,1.843,2.161,3.39,3.297,5.073c0.919,1.363,1.534,2.875,2.258,4.344c0.845,1.714,1.917,3.312,2.918,4.936
			c2.438,3.953,5.311,7.646,7.886,11.519c2.654,3.992,5.436,7.859,8.38,11.643c5.578,7.168,11.706,13.856,17.722,20.645
			c2.696,3.04,5.301,6.282,8.18,9.143c1.263,1.254,2.636,2.396,3.962,3.579c1.239,1.104,2.58,2.623,4.117,3.302
			c0.793,0.351,1.192,0.403,0.972-0.525C511.412,823.534,509.453,822.022,508.501,821.054z"></path>
		<path d="M511.604,800.352c-0.422-0.698-0.791-1.427-1.187-2.14c-1.207-2.177-2.613-4.271-4.024-6.322
			c-1.606-2.335-3.064-4.686-4.568-7.085c-0.762-1.216-1.736-2.238-2.589-3.384c-0.336-0.451-0.699-1.366-1.133-1.718
			c-0.538-0.435-1.38-0.295-2.065-0.745c-1.123-0.741-1.474-2.376-1.615-3.627c-0.059-0.526,0.127-1.022,0.072-1.506
			c-0.053-0.466-0.71-1.161-0.971-1.592c-0.768-1.272-1.537-2.544-2.296-3.821c-0.695-1.171-1.249-2.779-2.141-3.789
			c-0.55-0.622-0.933-0.797-1.249-1.614c-0.176-0.454-0.17-0.844-0.467-1.355c-0.384-0.663-0.755-1.342-1.176-1.984
			c-0.782-1.189-1.748-2.248-2.492-3.463c-1.034-1.691-2.154-3.353-3.063-5.115c-0.884-1.712-1.619-3.365-2.852-4.87
			c-2.158-2.633-3.487-5.686-5.433-8.475c-1.013-1.453-2.076-2.881-3.324-4.146c-0.531-0.54-1.496-1.743-1.745-0.622
			c-0.238,1.068,1.291,3.174,1.76,4.063c0.934,1.774,1.988,3.492,2.886,5.281c0.73,1.455,1.324,2.883,2.346,4.168
			c1.271,1.6,2.48,2.929,3.419,4.761c1.837,3.58,4.356,6.589,6.622,9.873c4.813,6.972,8.646,14.686,13.814,21.421
			c5.458,7.113,9.259,15.407,14.303,22.807c-0.143-0.852-0.324-1.645-0.258-2.503c0.023-0.293,0.318-0.981,0.289-1.178
			C512.412,801.294,511.82,800.71,511.604,800.352z"></path>
		<path d="M512.586,805.568c0.437,0.66,2.253,4.008,3.306,3.724c1.159-0.311-0.771-3.42-1.013-3.867
			C514.126,805.653,513.362,805.69,512.586,805.568z"></path>
		<path d="M512.58,779.585c-1.018-1.782-2.209-3.435-3.296-5.168c-0.535-0.852-0.909-1.769-1.385-2.652
			c-0.621-1.152-1.518-2.019-2.234-3.1c-1.909-2.879-3.448-6.158-5.003-9.24c-0.902-1.787-1.717-3.617-2.63-5.401
			c-0.837-1.633-2.002-3.066-2.877-4.688c-0.862-1.597-1.355-3.418-2.288-4.953c-0.476-0.784-1.179-1.385-1.692-2.138
			c-0.622-0.911-0.842-1.995-1.337-2.97c-0.801-1.578-1.879-3.173-3.098-4.454c-1.094-1.151-2.323-1.766-1.698,0.446
			c0.497,1.761,1.429,3.397,2.171,5.059c0.84,1.88,1.37,3.246,2.719,4.839c1.133,1.338,1.559,3.048,2.445,4.545
			c1.104,1.864,2.48,3.526,3.573,5.375c2.419,4.092,4.702,8.255,7.15,12.335c1.3,2.169,2.894,4.047,3.954,6.345
			c0.028,0.06,0.382,1.026,0.53,1.104c0.299,0.158,0.856-0.178,1.269,0.037c0.879,0.459,0.741,1.462-0.164,1.788
			c0.824,1.308,6.02,13.42,7.988,12.417c1.094-0.557-0.896-3.822-1.255-4.4C514.379,783.032,513.557,781.296,512.58,779.585z"></path>
		<path d="M479.615,803.433c-2.35-2.277-4.753-4.355-6.887-6.857c-3.02-3.539-5.642-7.399-8.517-11.032
			c-1.053-1.331-1.909-2.792-2.609-4.326c-0.786-1.723-2.329-2.758-3.101-4.5c-0.673-1.518-1.554-2.92-2.622-4.201
			c-0.576-0.692-2.74-2.969-2.461-0.692c0.212,1.727,1.34,3.446,2.06,4.994c0.35,0.753,0.566,1.574,0.964,2.303
			c0.52,0.957,1.367,1.512,2.065,2.315c1.015,1.168,1.54,2.724,2.475,3.982c1.214,1.635,2.696,2.965,3.931,4.57
			c2.871,3.73,5.874,7.531,9.39,10.689c3.268,2.934,6.611,5.945,9.591,9.221c1.408,1.548,3.297,3.21,5.229,4.087
			c2.879,1.307,0.56-1.873-0.299-2.661C485.832,808.65,482.502,806.233,479.615,803.433z"></path>
		<path d="M623.349,866.321c-1.279,0.911-2.477,1.901-3.665,2.925c-4.963,4.283-9.389,9.322-13.709,14.244
			c-4.297,4.894-8.013,10.417-11.417,15.954c-3.544,5.766-7.137,11.35-9.988,17.504c-2.019,4.359-4.338,8.59-6.435,12.913
			c-3.102,6.393-5.908,12.915-8.78,19.412c-2.826,6.391-5.777,12.796-8.146,19.375c-2.249,6.249-4.521,12.542-7.335,18.565
			c-1.409,3.017-2.925,5.976-4.078,9.106c-1.002,2.719-1.869,5.504-3.12,8.124c-1.267,2.652-2.752,5.199-3.979,7.871
			c-1.456,3.162-2.955,6.306-4.429,9.461c-1.233,2.638-2.649,5.364-3.505,8.155c-0.763,2.491,0.918,0.257,1.506-0.571
			c1.798-2.529,3.321-5.264,4.842-7.966c3.035-5.392,6.17-10.979,8.618-16.664c1.311-3.041,2.172-6.247,3.412-9.313
			c1.127-2.788,2.53-5.454,3.695-8.225c2.615-6.224,4.796-12.586,7.057-18.94c1.173-3.298,2.56-6.531,3.872-9.774
			c0.586-1.448,1.167-2.897,1.775-4.336c0.582-1.378-0.003-2.678,0.831-4.042c0.396-0.647,1.09-0.942,1.508-1.5
			c0.414-0.552,0.634-1.532,0.893-2.159c0.646-1.561,1.295-3.12,1.962-4.671c1.437-3.343,2.872-6.687,4.386-9.997
			c2.837-6.202,5.834-12.367,8.909-18.454c3.005-5.943,6.997-11.538,10.692-17.07c3.369-5.045,7.261-9.786,11.4-14.213
			c4.031-4.31,8.06-8.596,12.329-12.671c1.024-0.978,2.107-1.896,3.092-2.916c0.521-0.539,1.917-1.688,0.959-2.024
			C625.88,864.208,623.833,865.977,623.349,866.321z"></path>
		<path d="M604.086,908.572c-2.886,2.259-4.551,5.578-6.63,8.493c-2.086,2.925-3.983,5.893-5.63,9.093
			c-0.911,1.769-1.717,3.578-2.547,5.384c-0.902,1.966-2.092,3.796-2.894,5.807c-1.183,2.967-2.157,6-3.388,8.958
			c-3.182,7.645-6.438,15.371-9.182,23.185c-1.202,3.425-2.15,6.91-3.434,10.319c-0.649,1.721-1.553,3.315-2.253,5.013
			c-0.74,1.795-1.045,3.702-1.646,5.539c-0.543,1.66-7.503,16.764-5.749,17.045c0.765,0.123,2.247-3.135,2.51-3.617
			c0.998-1.83,1.919-3.692,2.783-5.589c0.736-1.614,1.619-3.152,2.355-4.765c0.84-1.841,1.219-3.772,1.728-5.718
			c0.481-1.839,1.361-3.488,2.094-5.233c0.777-1.852,1.353-3.8,1.998-5.701c0.716-2.114,1.132-4.298,1.808-6.419
			c0.75-2.353,1.657-4.668,2.482-6.995c5.28-14.777,10.057-30.519,19.415-43.328c1.595-2.184,2.956-4.517,4.535-6.705
			c0.913-1.265,2.519-2.836,2.862-4.406C605.568,907.717,604.869,907.96,604.086,908.572z"></path>
		<path d="M600.258,933.636c-1.292,2.437-2.325,4.995-3.719,7.375c-1.239,2.115-1.883,4.38-2.938,6.569
			c-2.453,5.092-5.035,10.13-7.418,15.253c-1.383,2.972-2.381,5.973-3.577,9.006c-1.147,2.906-2.922,5.831-3.654,8.853
			c-0.324,1.336-0.452,2.648-0.977,3.931c-0.646,1.578-1.315,3.041-1.764,4.694c-0.238,0.874-2.072,7.302-0.795,7.602
			c1.124,0.266,2.877-5.535,3.162-6.274c0.997-2.573,2.404-5.068,2.863-7.803c0.447-2.668,1.656-4.845,2.559-7.368
			c1.055-2.95,1.785-6.033,2.984-8.919c4.57-10.99,9.13-22.134,15.184-32.38c1.501-2.54,3.37-4.848,4.698-7.485
			c0.424-0.843,3.581-5.446,2.519-6.227C607.986,919.435,600.972,932.289,600.258,933.636z"></path>
		<path d="M589.608,898.446c-1.322,0.522-2.598,2.54-3.453,3.618c-1.179,1.486-2.086,3.161-3.227,4.676
			c-2.28,3.027-4.474,6.052-6.4,9.325c-1.818,3.091-4.054,6.118-5.597,9.343c-2.998,6.265-6.485,12.294-9.744,18.434
			c-1.756,3.309-3.734,6.596-5.079,10.103c-1.207,3.148-2.318,6.333-3.745,9.394c-0.844,1.809-1.864,3.522-2.435,5.449
			c-0.491,1.659-0.695,3.362-1.357,4.971c-1.466,3.559-2.768,7.05-3.379,10.881c1.01-1.263,2.311-2.273,3.323-3.507
			c0.834-1.017,1.089-2.638,1.636-3.862c1.162-2.604,1.747-5.06,2.504-7.795c0.763-2.758,2.29-5.365,3.323-8.039
			c1.062-2.75,1.851-5.65,3.048-8.335c2.575-5.777,5.412-11.464,8.275-17.104c1.418-2.794,3.073-5.485,4.341-8.35
			c1.354-3.056,3.386-5.633,5.117-8.478c1.755-2.887,3.596-5.744,5.68-8.408c1.05-1.342,2.19-2.614,3.151-4.025
			c0.49-0.72,0.935-1.469,1.407-2.201c-0.009,0.015,0.722-0.956,0.71-1.065c-0.035-0.331-1.018-1.071-1.227-1.291
			c0.755,0.011,1.18,0.476,1.296,1.19C588.19,902.801,591.877,897.551,589.608,898.446z"></path>
		<path d="M542.896,188.095c-0.855,0.26-0.334,2.651-0.271,3.227c0.2-0.51,0.571-0.938,1.114-1.088
			c0.4-0.11,0.796,0.005,1.107,0.268C544.618,189.952,543.75,187.835,542.896,188.095z"></path>
		<path d="M471.993,428.503c-0.565-1.73-0.922-3.525-1.502-5.243c-0.583-1.728-1.766-3.126-2.427-4.81
			c-0.67-1.706-1.03-3.51-1.717-5.219c-0.778-1.935-1.578-3.81-2.539-5.661c-1.777-3.42-2.785-7.255-4.233-10.823
			c-0.8-1.972-1.605-3.941-2.418-5.909c-0.31-0.751-0.616-2.258-1.173-2.874c-0.515-0.569-1.665-1.029-2.311-1.516
			c1.972,5.118,3.818,10.283,5.537,15.49c1.705,5.166,4.329,10.042,5.658,15.322c0.62,2.462,1.988,4.4,2.818,6.747
			c0.924,2.612,1.588,5.168,2.809,7.685c0.305,0.63,2.321,4.891,3.119,3.843c0.463-0.609-0.364-2.718-0.523-3.3
			C472.75,430.985,472.389,429.736,471.993,428.503z"></path>
		<path d="M497.605,790.82c-0.682-0.973-1.915-2.4-1.766-0.302c0.148,2.082,1.135,4.285,1.862,6.22
			c0.78,2.003,1.126,3.977,2.442,5.739c0.491-1.059,1.485-2.32,1.35-3.419c-0.098-0.789-0.545-1.775-0.839-2.513
			C499.874,794.578,498.82,792.55,497.605,790.82z"></path>
		<path d="M671.929,812.222c2.032-2.614-2.902-0.598-3.567-0.281c-3.486,1.652-6.79,3.726-10.047,5.784
			c-7.275,4.595-14.061,10.01-21.169,14.867c-7.017,4.796-13.767,10.134-20.182,15.711c-6.778,5.893-13.506,11.933-20.114,18.016
			c-5.583,5.138-10.221,11.156-15.318,16.758c-5.242,5.763-10.453,11.553-14.936,17.941c-10.076,14.36-17.95,30.631-24.283,46.954
			c-1.755,4.523-3.005,9.161-4.336,13.82c-1.282,4.492-2.789,8.919-4.084,13.408c-2.584,8.955-6.036,17.817-7.295,27.081
			c1.372-1.352,3.061-2.359,4.91-2.902c1.096-0.321,1.208-0.112,1.433-1.216c0.197-0.97,0.443-1.929,0.695-2.887
			c1.079-4.091,2.491-8.086,3.563-12.18c2.346-8.961,4.851-17.889,7.345-26.808c-0.057,0.349-0.563,2.46,0.047,2.699
			c0.485,0.191,1.168-1.327,1.316-1.6c0.693-1.283,1.213-2.657,1.816-3.984c0.228-0.503,0.594-1.054,0.722-1.591
			c0.171-0.714-0.081-1.465,0.022-2.242c0.162-1.217,0.717-2.576,1.669-3.392c0.347-0.297,1.07-0.432,1.337-0.727
			c0.432-0.478,0.485-1.701,0.652-2.332c0.741-2.802,2.417-5.198,3.649-7.801c1.207-2.547,2.18-5.276,3.508-7.754
			c1.503-2.806,3.256-5.452,4.881-8.182c3.085-5.185,6.527-10.136,9.742-15.231c1.607-2.547,3.952-4.763,5.857-7.102
			c1.733-2.128,3.611-4.182,5.621-6.051c2.186-2.032,4.117-4.213,6.161-6.382c0.436-0.463,3.626-4.01,1.26-3.325
			c-2.215,0.642-4.311,3.461-5.78,5.111c-1.888,2.119-4.031,3.975-5.897,6.122c-3.577,4.117-6.977,8.521-9.894,13.102
			c-1.283,2.015-2.805,3.898-4.185,5.846c-2.009,2.832-3.824,5.793-5.807,8.639c-1.943,2.789-3.892,5.718-5.245,8.842
			c-1.359,3.137-2.984,6.2-4.745,9.13c4.48-10.673,9.666-21.228,15.757-31.077c6.083-9.834,13.84-18.013,21.305-26.758
			c3.626-4.248,7.148-8.386,11.315-12.122c4.411-3.954,9.044-7.655,13.45-11.619c8.604-7.744,17.917-14.924,27.635-21.214
			c5.391-3.489,10.498-7.296,15.653-11.12c4.697-3.484,9.784-6.567,14.141-10.487c-0.795,0.914-1.359,2-2.144,2.923
			c-0.857,1.009-2.568,2.197-3.013,3.468c-0.174,0.496-0.115,0.899-0.371,1.443c-0.239,0.508-0.725,1.041-0.859,1.609
			c-0.087,0.37,0.266,1.239-0.424,1.168c-0.416-0.043-0.418-0.811-0.642-1.142c-1.102,1.583-2.644,2.77-3.693,4.387
			c-0.641,0.988-1.248,1.865-2.047,2.721c-2.589,2.775-5.243,5.472-8.081,7.989c-2.526,2.24-4.674,4.773-7.18,7.021
			c-1.165,1.044-2.629,1.725-3.675,2.898c-0.487,0.546-0.844,1.2-1.345,1.735c-0.668,0.711-1.532,1.128-2.307,1.705
			c-0.814,0.606-6.055,5.696-4.343,6.054c1.049,0.219,3.042-1.602,3.83-2.155c1.343-0.943,2.82-1.848,4.097-2.863
			c1.315-1.046,1.963-2.622,3.299-3.654c1.323-1.023,2.477-2.029,3.664-3.217c1.283-1.284,2.265-2.791,3.555-4.072
			c1.426-1.416,2.898-2.79,4.267-4.26c1.532-1.645,3.003-3.345,4.476-5.042c1.385-1.594,2.459-3.437,3.845-4.994
			c2.781-3.126,5.599-6.238,8.471-9.29c-4.089,9.924-9.243,19.527-15.533,28.226c-6.526,9.025-12.239,18.633-17.264,28.572
			c0.532-0.095,1.919,0.187,1.606,0.9c-0.248,0.563-1.871,0.165-1.937-0.245c-4.356,8.612-9.658,17.052-12.767,26.222
			c-2.494,7.355-5.164,14.79-7.177,22.297c-1.937,7.221-3.23,14.498-4.007,21.937c-1.046,10.016-2.757,19.669-5.823,29.281
			c-1.435,4.498-3.142,8.902-5.019,13.233c-1.819,4.198-3.489,8.474-5.532,12.569c-4.121,8.262-9.915,15.997-16.471,22.46
			c-3.361,3.312-6.664,6.648-9.888,10.094c-3.138,3.353-6.388,6.331-10.294,8.77c-8.063,5.035-16.289,9.804-24.774,14.092
			c-1.949,0.984-3.9,1.968-5.847,2.954c-1.566,0.794-4.492,1.745-5.607,3.138c-0.841,1.051,0.086,1.036,1.119,0.988
			c2.253-0.104,4.513-0.757,6.671-1.363c9.239-2.594,17.734-6.968,26.057-11.648c3.501-1.968,6.974-3.953,10.101-6.491
			c3.843-3.119,6.959-6.926,10.313-10.535c3.106-3.344,6.538-6.375,9.547-9.813c3.184-3.637,5.94-7.654,8.531-11.731
			c5.382-8.466,9.142-17.832,12.59-27.228c3.452-9.409,6.071-19.264,7.225-29.229c0.59-5.099,0.767-10.251,1.437-15.339
			c0.651-4.934,1.547-9.782,2.7-14.624c0.915-3.839,2.103-7.623,3.365-11.36c1.525-4.516,2.827-9.135,4.545-13.581
			c1.869-4.837,4.482-9.331,6.984-13.86c2.494-4.514,4.821-9.117,7.313-13.632c4.774-8.646,10.204-16.878,16.084-24.802
			c5.658-7.624,10.464-16.121,13.686-25.077c0.783-2.177,1.406-4.412,1.802-6.693c0.199-1.145,0.888-4.07-0.18-4.954
			C672.984,811.266,672.232,811.957,671.929,812.222z M548.904,944.082c-0.192,0.578-0.448,1.123-0.727,1.662
			c0.327-0.847,0.652-1.694,0.987-2.538C549.089,943.502,549.003,943.794,548.904,944.082z"></path>
		<path d="M509.724,661.173c0.274,0.776,0.589,1.539,0.888,2.307c0.247-0.572,1.359-1.912,1.103-2.506
			c-0.201-0.465-2.05-0.99-2.515-1.438C509.355,660.087,509.523,660.636,509.724,661.173z"></path>
		<path d="M506.439,648.544c-0.519,0.869,0.27,3.041,0.499,3.936c0.466,1.824,1.283,3.538,1.792,5.353
			c0.584-0.604,1.558-0.46,2.135,0.048c-0.334-1.394-0.765-2.73-1.301-4.059C509.261,653.074,507.373,646.984,506.439,648.544z"></path>
	</g>
</g>
</svg>