<?xml version="1.0" standalone="no"?>
<!DOCTYPE svg PUBLIC "-//W3C//DTD SVG 20010904//EN"
 "http://www.w3.org/TR/2001/REC-SVG-20010904/DTD/svg10.dtd">
<svg version="1.0" xmlns="http://www.w3.org/2000/svg"
 width="750.000000pt" height="750.000000pt" viewBox="0 0 750.000000 750.000000"
 preserveAspectRatio="xMidYMid meet">

<g transform="translate(0.000000,750.000000) scale(0.100000,-0.100000)"
fill="#000000" stroke="none">
<path d="M3680 5130 c-37 -4 -100 -18 -140 -30 -257 -76 -434 -249 -843 -822
-204 -286 -283 -411 -356 -563 -121 -248 -154 -365 -155 -535 0 -136 17 -210
73 -325 71 -144 189 -255 377 -357 85 -46 289 -113 399 -133 162 -28 1290 -11
1626 25 52 5 104 10 117 10 12 0 31 9 42 20 12 12 50 26 92 35 39 9 89 25 110
37 41 23 119 121 157 195 66 132 50 531 -33 821 -39 132 -157 424 -246 606
-33 66 -95 173 -139 236 -44 63 -118 172 -165 243 -48 70 -92 127 -99 127 -7
0 -64 52 -127 116 -219 220 -329 276 -585 298 -22 2 -69 0 -105 -4z m280 -133
c103 -35 157 -67 243 -145 142 -130 253 -253 312 -347 21 -33 51 -72 65 -86
41 -42 142 -194 198 -299 68 -127 202 -441 245 -577 75 -230 107 -462 89 -650
-6 -66 -17 -136 -25 -154 -17 -41 -87 -135 -115 -154 -25 -18 -191 -57 -266
-63 -33 -2 -69 -10 -81 -18 -21 -13 -342 -40 -353 -29 -6 6 11 133 45 340 27
166 57 358 71 450 5 33 9 137 8 230 -2 191 -7 206 -77 251 -150 95 -393 133
-847 132 -292 0 -307 -2 -359 -62 -95 -107 -193 -694 -180 -1076 3 -91 10
-183 16 -205 5 -22 9 -41 7 -42 -2 -2 -56 15 -122 36 -81 28 -125 48 -139 64
-11 13 -62 46 -113 72 -124 63 -194 144 -253 291 -54 135 -52 303 6 481 34
103 138 317 217 444 80 129 342 494 487 679 112 143 277 315 326 340 16 8 54
29 84 47 50 30 118 55 201 74 68 16 229 3 310 -24z"/>
<path d="M3559 4707 c-29 -14 -61 -44 -91 -85 -65 -86 -64 -142 3 -142 21 0
32 9 52 43 14 23 39 55 55 71 l31 28 35 -55 c42 -65 67 -83 95 -67 31 16 34
46 11 93 -31 61 -71 104 -112 121 -33 14 -38 14 -79 -7z"/>
<path d="M4176 4225 c-45 -16 -57 -30 -54 -64 4 -38 29 -47 87 -32 68 17 91 5
91 -49 0 -42 26 -80 54 -80 41 0 65 70 47 137 -24 88 -120 126 -225 88z"/>
<path d="M2590 3255 c-95 -35 -118 -72 -85 -134 16 -32 65 -77 95 -86 52 -16
82 52 40 90 -28 25 -26 30 21 45 23 8 48 24 56 37 14 21 14 26 -1 48 -20 31
-42 31 -126 0z"/>
<path d="M4660 3193 c-70 -36 -98 -73 -82 -108 15 -33 50 -33 98 0 20 14 41
22 47 18 6 -3 7 -32 4 -73 -6 -77 8 -110 48 -110 39 0 56 37 57 122 1 81 -16
127 -55 152 -43 27 -62 27 -117 -1z"/>
</g>
</svg>
